<svg width="720" height="720" viewBox="0 0 720 720" fill="none" xmlns="http://www.w3.org/2000/svg">
<mask id="path-1-inside-1_188_33" fill="white">
<path fill-rule="evenodd" clip-rule="evenodd" d="M301.13 145.478C301.125 145.759 301.123 146.041 301.123 146.323C301.123 173.894 323.699 196.245 351.548 196.245C379.397 196.245 401.974 173.894 401.974 146.323C401.974 146.041 401.971 145.759 401.967 145.478H565.215V568.54H137.879V145.478H301.13Z"/>
</mask>
<path d="M301.13 145.478L325.912 145.893L326.334 120.692H301.13V145.478ZM401.967 145.478V120.692H376.761L377.185 145.894L401.967 145.478ZM565.215 145.478H590V120.692H565.215V145.478ZM565.215 568.54V593.325H590V568.54H565.215ZM137.879 568.54H113.093V593.325H137.879V568.54ZM137.879 145.478V120.692H113.093V145.478H137.879ZM276.348 145.062C276.341 145.481 276.337 145.902 276.337 146.323H325.908C325.908 146.18 325.909 146.037 325.912 145.893L276.348 145.062ZM276.337 146.323C276.337 187.817 310.246 221.03 351.548 221.03V171.459C337.152 171.459 325.908 159.971 325.908 146.323H276.337ZM351.548 221.03C392.851 221.03 426.759 187.817 426.759 146.323H377.188C377.188 159.971 365.944 171.459 351.548 171.459V221.03ZM426.759 146.323C426.759 145.904 426.756 145.483 426.749 145.061L377.185 145.894C377.187 146.035 377.188 146.178 377.188 146.323H426.759ZM401.967 170.263H565.215V120.692H401.967V170.263ZM540.429 145.478V568.54H590V145.478H540.429ZM565.215 543.754H137.879V593.325H565.215V543.754ZM162.664 568.54V145.478H113.093V568.54H162.664ZM137.879 170.263H301.13V120.692H137.879V170.263Z" fill="white" mask="url(#path-1-inside-1_188_33)"/>
<rect x="104.548" y="308.72" width="307.682" height="100.851" rx="50.4256" fill="white"/>
<rect x="290.866" y="493.329" width="307.682" height="100.851" rx="50.4256" fill="white"/>
<circle cx="351.12" cy="145.05" r="21.7941" fill="#8654D6"/>
<circle cx="351.12" cy="145.05" r="21.7941" fill="#8654D6"/>
<circle cx="548.121" cy="359.145" r="50.4256" fill="white"/>
<circle cx="164.374" cy="181.374" r="68.3737" fill="white"/>
<circle cx="554.959" cy="181.374" r="68.3737" fill="white"/>
<circle cx="164.374" cy="538.626" r="68.3737" fill="white"/>
</svg>
