<svg width="1800" height="720" viewBox="0 0 1800 720" fill="none" xmlns="http://www.w3.org/2000/svg">
<mask id="path-1-inside-1_188_206" fill="white">
<path fill-rule="evenodd" clip-rule="evenodd" d="M336.016 204.15C336.013 204.352 336.011 204.554 336.011 204.757C336.011 224.516 352.191 240.535 372.151 240.535C392.11 240.535 408.29 224.516 408.29 204.757C408.29 204.554 408.289 204.352 408.285 204.15H525.284V507.357H219.015V204.15H336.016Z"/>
</mask>
<path d="M336.016 204.15L353.777 204.448L354.08 186.386H336.016V204.15ZM408.285 204.15V186.386H390.221L390.524 204.448L408.285 204.15ZM525.284 204.15H543.048V186.386H525.284V204.15ZM525.284 507.357V525.121H543.048V507.357H525.284ZM219.015 507.357H201.251V525.121H219.015V507.357ZM219.015 204.15V186.386H201.251V204.15H219.015ZM318.255 203.852C318.25 204.153 318.247 204.454 318.247 204.757H353.774C353.774 204.653 353.775 204.551 353.777 204.448L318.255 203.852ZM318.247 204.757C318.247 234.495 342.549 258.299 372.151 258.299V222.771C361.833 222.771 353.774 214.538 353.774 204.757H318.247ZM372.151 258.299C401.752 258.299 426.054 234.495 426.054 204.757H390.527C390.527 214.538 382.468 222.771 372.151 222.771V258.299ZM426.054 204.757C426.054 204.455 426.052 204.153 426.047 203.852L390.524 204.448C390.526 204.55 390.527 204.653 390.527 204.757H426.054ZM408.285 221.914H525.284V186.386H408.285V221.914ZM507.521 204.15V507.357H543.048V204.15H507.521ZM525.284 489.594H219.015V525.121H525.284V489.594ZM236.778 507.357V204.15H201.251V507.357H236.778ZM219.015 221.914H336.016V186.386H219.015V221.914Z" fill="#0E092D" mask="url(#path-1-inside-1_188_206)"/>
<rect x="195.126" y="321.145" width="220.514" height="72.2797" rx="36.1398" fill="#0E092D"/>
<rect x="328.66" y="453.454" width="220.514" height="72.2797" rx="36.1398" fill="#0E092D"/>
<circle cx="371.843" cy="203.844" r="15.6198" fill="#AB80E8"/>
<circle cx="371.843" cy="203.844" r="15.6198" fill="#AB80E8"/>
<circle cx="513.033" cy="357.285" r="36.1398" fill="#0E092D"/>
<circle cx="238.003" cy="229.877" r="49.0032" fill="#0E092D"/>
<circle cx="517.934" cy="229.877" r="49.0032" fill="#0E092D"/>
<circle cx="238.003" cy="485.918" r="49.0032" fill="#0E092D"/>
<path d="M723.906 214.559H706.078V203.392H754.271V214.559H736.444V270H723.906V214.559ZM769.122 198.691H781.072V225.726H781.855C783.488 222.656 785.316 220.534 787.341 219.359C789.365 218.183 792.173 217.595 795.765 217.595C800.793 217.595 804.646 218.183 807.323 219.359C810 220.534 811.894 222.558 813.004 225.432C814.18 228.24 814.767 232.256 814.767 237.48V270H802.817V237.284C802.817 234.802 802.523 232.876 801.936 231.505C801.413 230.133 800.466 229.187 799.095 228.664C797.724 228.076 795.765 227.783 793.218 227.783C790.018 227.783 787.537 228.24 785.773 229.154C784.076 230.068 782.868 231.635 782.149 233.856C781.431 236.076 781.072 239.243 781.072 243.357V270H769.122V198.691ZM854.4 270.882C848 270.882 843.07 270.098 839.609 268.531C836.148 266.898 833.667 264.156 832.165 260.303C830.728 256.45 830.01 250.997 830.01 243.945C830.01 237.023 830.695 231.701 832.067 227.978C833.503 224.191 835.887 221.514 839.217 219.946C842.613 218.379 847.413 217.595 853.616 217.595C859.95 217.595 864.783 218.542 868.113 220.436C871.509 222.33 873.86 225.497 875.166 229.937C876.537 234.313 877.092 240.549 876.831 248.646H842.058C842.319 251.846 842.841 254.328 843.625 256.091C844.409 257.789 845.617 258.997 847.249 259.715C848.947 260.433 851.298 260.792 854.302 260.792C857.24 260.792 859.363 260.335 860.669 259.421C862.04 258.507 863.118 256.809 863.901 254.328H876.047C875.394 258.638 874.317 261.968 872.815 264.319C871.313 266.67 869.125 268.367 866.252 269.412C863.379 270.392 859.428 270.882 854.4 270.882ZM865.175 239.341C865.175 236.337 864.783 234.019 863.999 232.386C863.281 230.688 862.073 229.48 860.375 228.762C858.742 228.044 856.489 227.685 853.616 227.685C850.874 227.685 848.653 228.044 846.955 228.762C845.323 229.48 844.115 230.688 843.331 232.386C842.548 234.019 842.156 236.337 842.156 239.341H865.175ZM701.475 328.392H712.249L716.07 380.797H716.168L716.853 368.651L723.122 328.392H737.227L743.3 368.651L744.084 380.797H744.182L748.1 328.392H758.875L750.941 395H737.913L730.371 337.012H729.979L722.339 395H709.409L701.475 328.392ZM792.728 395.882C786.329 395.882 781.398 395.098 777.937 393.531C774.476 391.898 771.995 389.156 770.493 385.303C769.056 381.45 768.338 375.997 768.338 368.945C768.338 362.023 769.024 356.701 770.395 352.978C771.832 349.191 774.215 346.514 777.545 344.946C780.941 343.379 785.741 342.595 791.944 342.595C798.279 342.595 803.111 343.542 806.441 345.436C809.837 347.33 812.188 350.497 813.494 354.937C814.865 359.313 815.42 365.549 815.159 373.646H780.386C780.647 376.846 781.17 379.328 781.953 381.091C782.737 382.789 783.945 383.997 785.578 384.715C787.275 385.433 789.626 385.792 792.63 385.792C795.569 385.792 797.691 385.335 798.997 384.421C800.368 383.507 801.446 381.809 802.229 379.328H814.376C813.723 383.638 812.645 386.968 811.143 389.319C809.641 391.67 807.454 393.367 804.58 394.412C801.707 395.392 797.756 395.882 792.728 395.882ZM803.503 364.341C803.503 361.337 803.111 359.019 802.327 357.386C801.609 355.688 800.401 354.48 798.703 353.762C797.071 353.044 794.818 352.685 791.944 352.685C789.202 352.685 786.982 353.044 785.284 353.762C783.651 354.48 782.443 355.688 781.659 357.386C780.876 359.019 780.484 361.337 780.484 364.341H803.503ZM857.436 395.98C854.237 395.98 851.657 395.555 849.698 394.706C847.804 393.792 845.78 392.094 843.625 389.613H842.841V395H830.989L831.087 323.691H842.939L842.841 347.787H843.625C845.388 345.371 847.249 343.706 849.208 342.791C851.167 341.877 853.91 341.42 857.436 341.42C863.052 341.42 867.362 342.236 870.366 343.869C873.435 345.501 875.59 348.277 876.831 352.195C878.137 356.048 878.79 361.533 878.79 368.651C878.79 375.834 878.137 381.385 876.831 385.303C875.59 389.156 873.435 391.898 870.366 393.531C867.362 395.163 863.052 395.98 857.436 395.98ZM854.106 385.695C857.436 385.695 859.983 385.205 861.746 384.225C863.575 383.18 864.848 381.45 865.566 379.034C866.35 376.618 866.742 373.157 866.742 368.651C866.742 364.21 866.35 360.782 865.566 358.366C864.848 355.95 863.575 354.252 861.746 353.272C859.983 352.227 857.436 351.705 854.106 351.705C851.102 351.705 848.784 352.227 847.151 353.272C845.519 354.252 844.343 355.95 843.625 358.366C842.972 360.782 842.646 364.21 842.646 368.651C842.646 373.091 842.972 376.552 843.625 379.034C844.343 381.45 845.519 383.18 847.151 384.225C848.784 385.205 851.102 385.695 854.106 385.695ZM906.472 328.392H923.908L943.204 395H930.862L926.552 380.307H904.023L899.811 395H887.567L906.472 328.392ZM923.712 369.434L915.19 339.755H915.092L906.962 369.434H923.712ZM977.058 395.882C970.789 395.882 965.956 395.359 962.561 394.314C959.23 393.27 956.879 391.474 955.508 388.927C954.137 386.38 953.516 382.789 953.647 378.152H965.695C965.76 380.111 966.12 381.646 966.773 382.756C967.491 383.801 968.634 384.552 970.201 385.009C971.833 385.466 974.119 385.727 977.058 385.792C979.931 385.858 982.151 385.727 983.718 385.401C985.286 385.074 986.396 384.552 987.049 383.833C987.702 383.05 988.028 381.94 988.028 380.503C988.028 379.197 987.604 378.12 986.755 377.271C985.971 376.356 984.6 375.573 982.641 374.92C980.682 374.267 977.907 373.614 974.315 372.961C969.091 371.981 965.042 370.904 962.169 369.728C959.361 368.488 957.337 366.953 956.096 365.125C954.92 363.231 954.333 360.749 954.333 357.68C954.333 353.697 954.986 350.66 956.292 348.571C957.663 346.416 959.949 344.881 963.148 343.967C966.413 343.053 970.985 342.595 976.862 342.595C982.608 342.595 987.049 343.085 990.183 344.065C993.318 344.979 995.538 346.579 996.844 348.864C998.15 351.085 998.836 354.284 998.901 358.464H987.147C987.016 356.244 986.2 354.742 984.698 353.958C983.261 353.109 980.617 352.685 976.764 352.685C974.021 352.685 971.899 352.848 970.397 353.174C968.895 353.436 967.817 353.958 967.164 354.742C966.511 355.46 966.185 356.472 966.185 357.778C966.185 358.496 966.609 359.149 967.458 359.737C968.373 360.325 969.874 360.945 971.964 361.598C974.119 362.186 977.221 362.937 981.27 363.851C986.167 364.961 989.955 366.202 992.632 367.573C995.309 368.879 997.203 370.545 998.313 372.569C999.489 374.593 1000.08 377.205 1000.08 380.405C1000.08 384.454 999.391 387.588 998.019 389.809C996.648 392.029 994.297 393.596 990.967 394.51C987.702 395.424 983.065 395.882 977.058 395.882ZM1038.73 395.882C1032.46 395.882 1027.63 395.359 1024.23 394.314C1020.9 393.27 1018.55 391.474 1017.18 388.927C1015.81 386.38 1015.19 382.789 1015.32 378.152H1027.37C1027.43 380.111 1027.79 381.646 1028.44 382.756C1029.16 383.801 1030.31 384.552 1031.87 385.009C1033.51 385.466 1035.79 385.727 1038.73 385.792C1041.6 385.858 1043.82 385.727 1045.39 385.401C1046.96 385.074 1048.07 384.552 1048.72 383.833C1049.37 383.05 1049.7 381.94 1049.7 380.503C1049.7 379.197 1049.28 378.12 1048.43 377.271C1047.64 376.356 1046.27 375.573 1044.31 374.92C1042.35 374.267 1039.58 373.614 1035.99 372.961C1030.76 371.981 1026.71 370.904 1023.84 369.728C1021.03 368.488 1019.01 366.953 1017.77 365.125C1016.59 363.231 1016 360.749 1016 357.68C1016 353.697 1016.66 350.66 1017.96 348.571C1019.33 346.416 1021.62 344.881 1024.82 343.967C1028.09 343.053 1032.66 342.595 1038.53 342.595C1044.28 342.595 1048.72 343.085 1051.85 344.065C1054.99 344.979 1057.21 346.579 1058.52 348.864C1059.82 351.085 1060.51 354.284 1060.57 358.464H1048.82C1048.69 356.244 1047.87 354.742 1046.37 353.958C1044.93 353.109 1042.29 352.685 1038.44 352.685C1035.69 352.685 1033.57 352.848 1032.07 353.174C1030.57 353.436 1029.49 353.958 1028.84 354.742C1028.18 355.46 1027.86 356.472 1027.86 357.778C1027.86 358.496 1028.28 359.149 1029.13 359.737C1030.04 360.325 1031.55 360.945 1033.64 361.598C1035.79 362.186 1038.89 362.937 1042.94 363.851C1047.84 364.961 1051.63 366.202 1054.3 367.573C1056.98 368.879 1058.87 370.545 1059.99 372.569C1061.16 374.593 1061.75 377.205 1061.75 380.405C1061.75 384.454 1061.06 387.588 1059.69 389.809C1058.32 392.029 1055.97 393.596 1052.64 394.51C1049.37 395.424 1044.74 395.882 1038.73 395.882ZM1101.09 395.882C1094.69 395.882 1089.76 395.098 1086.3 393.531C1082.83 391.898 1080.35 389.156 1078.85 385.303C1077.41 381.45 1076.7 375.997 1076.7 368.945C1076.7 362.023 1077.38 356.701 1078.75 352.978C1080.19 349.191 1082.57 346.514 1085.9 344.946C1089.3 343.379 1094.1 342.595 1100.3 342.595C1106.64 342.595 1111.47 343.542 1114.8 345.436C1118.2 347.33 1120.55 350.497 1121.85 354.937C1123.22 359.313 1123.78 365.549 1123.52 373.646H1088.74C1089.01 376.846 1089.53 379.328 1090.31 381.091C1091.1 382.789 1092.3 383.997 1093.94 384.715C1095.63 385.433 1097.98 385.792 1100.99 385.792C1103.93 385.792 1106.05 385.335 1107.36 384.421C1108.73 383.507 1109.8 381.809 1110.59 379.328H1122.73C1122.08 383.638 1121 386.968 1119.5 389.319C1118 391.67 1115.81 393.367 1112.94 394.412C1110.07 395.392 1106.11 395.882 1101.09 395.882ZM1111.86 364.341C1111.86 361.337 1111.47 359.019 1110.69 357.386C1109.97 355.688 1108.76 354.48 1107.06 353.762C1105.43 353.044 1103.18 352.685 1100.3 352.685C1097.56 352.685 1095.34 353.044 1093.64 353.762C1092.01 354.48 1090.8 355.688 1090.02 357.386C1089.23 359.019 1088.84 361.337 1088.84 364.341H1111.86ZM1134.94 343.869H1145.52V350.138H1146.3C1147.67 347.265 1149.01 345.305 1150.32 344.261C1151.62 343.151 1153.39 342.595 1155.61 342.595C1159 342.595 1161.45 343.151 1162.95 344.261C1164.46 345.305 1165.63 347.265 1166.48 350.138H1166.58C1167.49 347.265 1168.67 345.305 1170.1 344.261C1171.54 343.151 1173.73 342.595 1176.67 342.595C1179.87 342.595 1182.32 343.183 1184.01 344.359C1185.71 345.534 1186.92 347.558 1187.64 350.432C1188.36 353.24 1188.72 357.256 1188.72 362.48V395H1177.84V364.243C1177.84 361.37 1177.68 359.149 1177.35 357.582C1177.09 355.95 1176.6 354.807 1175.88 354.154C1175.17 353.501 1174.15 353.174 1172.85 353.174C1171.41 353.174 1170.27 353.566 1169.42 354.35C1168.64 355.068 1168.08 356.309 1167.75 358.072C1167.43 359.835 1167.26 362.349 1167.26 365.614V395H1156.49L1156.69 364.243C1156.75 359.998 1156.36 357.092 1155.51 355.525C1154.73 353.958 1153.22 353.174 1151 353.174C1149.63 353.174 1148.56 353.566 1147.77 354.35C1147.05 355.133 1146.53 356.439 1146.2 358.268C1145.94 360.096 1145.81 362.708 1145.81 366.104V395H1134.94V343.869ZM1227.47 395.98C1224.27 395.98 1221.69 395.555 1219.73 394.706C1217.83 393.792 1215.81 392.094 1213.66 389.613H1212.87V395H1201.02L1201.12 323.691H1212.97L1212.87 347.787H1213.66C1215.42 345.371 1217.28 343.706 1219.24 342.791C1221.2 341.877 1223.94 341.42 1227.47 341.42C1233.08 341.42 1237.39 342.236 1240.4 343.869C1243.47 345.501 1245.62 348.277 1246.86 352.195C1248.17 356.048 1248.82 361.533 1248.82 368.651C1248.82 375.834 1248.17 381.385 1246.86 385.303C1245.62 389.156 1243.47 391.898 1240.4 393.531C1237.39 395.163 1233.08 395.98 1227.47 395.98ZM1224.14 385.695C1227.47 385.695 1230.01 385.205 1231.78 384.225C1233.61 383.18 1234.88 381.45 1235.6 379.034C1236.38 376.618 1236.77 373.157 1236.77 368.651C1236.77 364.21 1236.38 360.782 1235.6 358.366C1234.88 355.95 1233.61 354.252 1231.78 353.272C1230.01 352.227 1227.47 351.705 1224.14 351.705C1221.13 351.705 1218.81 352.227 1217.18 353.272C1215.55 354.252 1214.37 355.95 1213.66 358.366C1213 360.782 1212.68 364.21 1212.68 368.651C1212.68 373.091 1213 376.552 1213.66 379.034C1214.37 381.45 1215.55 383.18 1217.18 384.225C1218.81 385.205 1221.13 385.695 1224.14 385.695ZM1262.4 384.813H1280.32V333.878H1263.38V323.691H1292.08V384.813H1308.83V395H1262.4V384.813ZM1342.29 390.298H1338.96L1322.31 343.869H1334.45L1346.7 381.483H1347.19L1359.23 343.869H1371.58L1346.11 416.06H1333.77L1342.29 390.298ZM732.624 520.882C725.702 520.882 720.38 519.869 716.657 517.845C712.935 515.755 710.29 512.294 708.723 507.462C707.156 502.63 706.372 495.74 706.372 486.794C706.372 477.783 707.156 470.828 708.723 465.93C710.29 461.033 712.935 457.572 716.657 455.547C720.38 453.458 725.702 452.413 732.624 452.413C738.435 452.413 742.941 453.033 746.141 454.274C749.341 455.449 751.659 457.474 753.096 460.347C754.532 463.155 755.349 467.171 755.544 472.395H743.3C742.843 469.979 742.223 468.118 741.439 466.812C740.721 465.441 739.644 464.494 738.207 463.971C736.836 463.384 734.974 463.09 732.624 463.09C729.032 463.09 726.257 463.808 724.298 465.245C722.339 466.616 720.935 468.999 720.086 472.395C719.302 475.791 718.91 480.59 718.91 486.794C718.91 492.932 719.302 497.667 720.086 500.997C720.935 504.328 722.339 506.711 724.298 508.148C726.257 509.519 729.032 510.205 732.624 510.205C736.476 510.205 739.186 509.617 740.754 508.442C742.321 507.201 743.366 504.883 743.888 501.487H756.132C755.806 506.581 754.891 510.531 753.389 513.339C751.888 516.082 749.504 518.041 746.239 519.216C743.039 520.327 738.501 520.882 732.624 520.882ZM791.847 520.882C785.512 520.882 780.615 520.098 777.154 518.531C773.693 516.898 771.211 514.221 769.709 510.499C768.273 506.711 767.554 501.324 767.554 494.336C767.554 487.284 768.273 481.864 769.709 478.076C771.211 474.289 773.66 471.612 777.056 470.044C780.517 468.412 785.447 467.595 791.847 467.595C798.246 467.595 803.144 468.412 806.539 470.044C810 471.612 812.449 474.289 813.886 478.076C815.388 481.864 816.139 487.284 816.139 494.336C816.139 501.324 815.388 506.711 813.886 510.499C812.449 514.221 810 516.898 806.539 518.531C803.078 520.098 798.181 520.882 791.847 520.882ZM791.847 510.695C795.112 510.695 797.593 510.205 799.291 509.225C801.054 508.246 802.295 506.613 803.013 504.328C803.797 501.977 804.189 498.646 804.189 494.336C804.189 489.961 803.797 486.598 803.013 484.247C802.295 481.897 801.054 480.231 799.291 479.252C797.593 478.207 795.112 477.685 791.847 477.685C788.581 477.685 786.067 478.207 784.304 479.252C782.606 480.231 781.366 481.897 780.582 484.247C779.864 486.598 779.505 489.961 779.505 494.336C779.505 498.646 779.864 501.977 780.582 504.328C781.366 506.613 782.606 508.246 784.304 509.225C786.067 510.205 788.581 510.695 791.847 510.695ZM826.581 468.869H837.16V475.138H837.944C839.315 472.265 840.654 470.305 841.96 469.261C843.266 468.151 845.029 467.595 847.249 467.595C850.645 467.595 853.094 468.151 854.596 469.261C856.098 470.305 857.273 472.265 858.122 475.138H858.22C859.134 472.265 860.31 470.305 861.746 469.261C863.183 468.151 865.37 467.595 868.309 467.595C871.509 467.595 873.958 468.183 875.655 469.359C877.353 470.534 878.561 472.558 879.28 475.432C879.998 478.24 880.357 482.256 880.357 487.48V520H869.484V489.243C869.484 486.37 869.321 484.149 868.995 482.582C868.734 480.95 868.244 479.807 867.525 479.154C866.807 478.501 865.795 478.174 864.489 478.174C863.052 478.174 861.909 478.566 861.061 479.35C860.277 480.068 859.722 481.309 859.395 483.072C859.069 484.835 858.906 487.349 858.906 490.614V520H848.131L848.327 489.243C848.392 484.998 848 482.092 847.151 480.525C846.368 478.958 844.866 478.174 842.646 478.174C841.274 478.174 840.197 478.566 839.413 479.35C838.695 480.133 838.172 481.439 837.846 483.268C837.585 485.096 837.454 487.708 837.454 491.104V520H826.581V468.869ZM890.702 468.869H902.554V473.864H903.338C905.427 471.514 907.386 469.914 909.215 469.065C911.043 468.216 913.427 467.791 916.365 467.791C922.177 467.791 926.65 468.608 929.785 470.24C932.919 471.807 935.14 474.485 936.446 478.272C937.817 482.06 938.503 487.447 938.503 494.434C938.503 501.356 937.85 506.711 936.544 510.499C935.238 514.221 933.017 516.898 929.883 518.531C926.814 520.098 922.406 520.882 916.659 520.882C913.198 520.882 910.521 520.457 908.627 519.608C906.733 518.759 904.97 517.159 903.338 514.809H902.554V541.06H890.702V468.869ZM913.819 510.695C917.149 510.695 919.696 510.205 921.459 509.225C923.287 508.246 924.561 506.613 925.279 504.328C926.063 501.977 926.454 498.679 926.454 494.434C926.454 490.125 926.063 486.794 925.279 484.443C924.561 482.092 923.287 480.427 921.459 479.448C919.696 478.468 917.149 477.978 913.819 477.978C910.815 477.978 908.497 478.468 906.864 479.448C905.231 480.427 904.056 482.092 903.338 484.443C902.685 486.794 902.358 490.125 902.358 494.434C902.358 498.679 902.685 501.977 903.338 504.328C904.056 506.613 905.231 508.246 906.864 509.225C908.497 510.205 910.815 510.695 913.819 510.695ZM976.862 520.882C970.527 520.882 965.63 520.098 962.169 518.531C958.708 516.898 956.226 514.221 954.724 510.499C953.288 506.711 952.57 501.324 952.57 494.336C952.57 487.284 953.288 481.864 954.724 478.076C956.226 474.289 958.675 471.612 962.071 470.044C965.532 468.412 970.462 467.595 976.862 467.595C983.261 467.595 988.159 468.412 991.555 470.044C995.016 471.612 997.464 474.289 998.901 478.076C1000.4 481.864 1001.15 487.284 1001.15 494.336C1001.15 501.324 1000.4 506.711 998.901 510.499C997.464 514.221 995.016 516.898 991.555 518.531C988.094 520.098 983.196 520.882 976.862 520.882ZM976.862 510.695C980.127 510.695 982.608 510.205 984.306 509.225C986.069 508.246 987.31 506.613 988.028 504.328C988.812 501.977 989.204 498.646 989.204 494.336C989.204 489.961 988.812 486.598 988.028 484.247C987.31 481.897 986.069 480.231 984.306 479.252C982.608 478.207 980.127 477.685 976.862 477.685C973.597 477.685 971.083 478.207 969.319 479.252C967.622 480.231 966.381 481.897 965.597 484.247C964.879 486.598 964.52 489.961 964.52 494.336C964.52 498.646 964.879 501.977 965.597 504.328C966.381 506.613 967.622 508.246 969.319 509.225C971.083 510.205 973.597 510.695 976.862 510.695ZM1015.81 468.869H1027.76V475.921H1028.54C1030.37 472.722 1032.26 470.534 1034.22 469.359C1036.18 468.183 1038.96 467.595 1042.55 467.595C1047.51 467.595 1051.33 468.216 1054.01 469.457C1056.69 470.632 1058.58 472.656 1059.69 475.53C1060.87 478.338 1061.45 482.386 1061.45 487.676V520H1049.5V487.48C1049.5 485.064 1049.21 483.203 1048.62 481.897C1048.1 480.525 1047.15 479.578 1045.78 479.056C1044.41 478.468 1042.48 478.174 1040 478.174C1036.8 478.174 1034.32 478.631 1032.56 479.546C1030.86 480.46 1029.62 482.027 1028.84 484.247C1028.12 486.402 1027.76 489.472 1027.76 493.455V520H1015.81V468.869ZM1101.09 520.882C1094.69 520.882 1089.76 520.098 1086.3 518.531C1082.83 516.898 1080.35 514.156 1078.85 510.303C1077.41 506.45 1076.7 500.997 1076.7 493.945C1076.7 487.023 1077.38 481.701 1078.75 477.978C1080.19 474.191 1082.57 471.514 1085.9 469.946C1089.3 468.379 1094.1 467.595 1100.3 467.595C1106.64 467.595 1111.47 468.542 1114.8 470.436C1118.2 472.33 1120.55 475.497 1121.85 479.937C1123.22 484.313 1123.78 490.549 1123.52 498.646H1088.74C1089.01 501.846 1089.53 504.328 1090.31 506.091C1091.1 507.789 1092.3 508.997 1093.94 509.715C1095.63 510.433 1097.98 510.792 1100.99 510.792C1103.93 510.792 1106.05 510.335 1107.36 509.421C1108.73 508.507 1109.8 506.809 1110.59 504.328H1122.73C1122.08 508.638 1121 511.968 1119.5 514.319C1118 516.67 1115.81 518.367 1112.94 519.412C1110.07 520.392 1106.11 520.882 1101.09 520.882ZM1111.86 489.341C1111.86 486.337 1111.47 484.019 1110.69 482.386C1109.97 480.688 1108.76 479.48 1107.06 478.762C1105.43 478.044 1103.18 477.685 1100.3 477.685C1097.56 477.685 1095.34 478.044 1093.64 478.762C1092.01 479.48 1090.8 480.688 1090.02 482.386C1089.23 484.019 1088.84 486.337 1088.84 489.341H1111.86ZM1139.15 468.869H1151.1V475.921H1151.89C1153.71 472.722 1155.61 470.534 1157.57 469.359C1159.53 468.183 1162.3 467.595 1165.89 467.595C1170.86 467.595 1174.68 468.216 1177.35 469.457C1180.03 470.632 1181.92 472.656 1183.03 475.53C1184.21 478.338 1184.8 482.386 1184.8 487.676V520H1172.85V487.48C1172.85 485.064 1172.55 483.203 1171.97 481.897C1171.44 480.525 1170.5 479.578 1169.13 479.056C1167.75 478.468 1165.83 478.174 1163.35 478.174C1160.15 478.174 1157.66 478.631 1155.9 479.546C1154.2 480.46 1152.96 482.027 1152.18 484.247C1151.46 486.402 1151.1 489.472 1151.1 493.455V520H1139.15V468.869ZM1229.92 521.077C1225.21 521.077 1221.65 520.457 1219.24 519.216C1216.82 517.976 1215.19 516.147 1214.34 513.731C1213.49 511.25 1213.07 507.887 1213.07 503.642V478.958H1200.43L1202.78 468.869H1213.46V458.486L1224.82 453.686V468.869H1243.92V478.958H1224.82V503.25C1224.82 505.34 1224.99 506.874 1225.31 507.854C1225.7 508.833 1226.49 509.552 1227.66 510.009C1228.9 510.466 1230.76 510.695 1233.25 510.695C1236.05 510.695 1240.14 510.303 1245.49 509.519V519.804C1238.7 520.653 1233.51 521.077 1229.92 521.077ZM1320.93 453.392H1335.73L1346.4 485.325H1347.48L1358.35 453.392H1372.95V520H1361.39V486.304L1362.56 468.967H1362.17L1351.89 497.765H1341.99L1331.71 468.967H1331.32L1332.49 486.304V520H1320.93V453.392ZM1408.56 520.882C1402.23 520.882 1397.33 520.098 1393.87 518.531C1390.41 516.898 1387.93 514.221 1386.43 510.499C1384.99 506.711 1384.27 501.324 1384.27 494.336C1384.27 487.284 1384.99 481.864 1386.43 478.076C1387.93 474.289 1390.38 471.612 1393.77 470.044C1397.23 468.412 1402.16 467.595 1408.56 467.595C1414.96 467.595 1419.86 468.412 1423.26 470.044C1426.72 471.612 1429.17 474.289 1430.6 478.076C1432.11 481.864 1432.86 487.284 1432.86 494.336C1432.86 501.324 1432.11 506.711 1430.6 510.499C1429.17 514.221 1426.72 516.898 1423.26 518.531C1419.8 520.098 1414.9 520.882 1408.56 520.882ZM1408.56 510.695C1411.83 510.695 1414.31 510.205 1416.01 509.225C1417.77 508.246 1419.01 506.613 1419.73 504.328C1420.51 501.977 1420.91 498.646 1420.91 494.336C1420.91 489.961 1420.51 486.598 1419.73 484.247C1419.01 481.897 1417.77 480.231 1416.01 479.252C1414.31 478.207 1411.83 477.685 1408.56 477.685C1405.3 477.685 1402.78 478.207 1401.02 479.252C1399.32 480.231 1398.08 481.897 1397.3 484.247C1396.58 486.598 1396.22 489.961 1396.22 494.336C1396.22 498.646 1396.58 501.977 1397.3 504.328C1398.08 506.613 1399.32 508.246 1401.02 509.225C1402.78 510.205 1405.3 510.695 1408.56 510.695ZM1466.32 520.98C1460.77 520.98 1456.46 520.196 1453.39 518.629C1450.38 516.996 1448.23 514.286 1446.92 510.499C1445.68 506.646 1445.06 501.193 1445.06 494.141C1445.06 487.153 1445.68 481.799 1446.92 478.076C1448.23 474.289 1450.38 471.612 1453.39 470.044C1456.46 468.412 1460.77 467.595 1466.32 467.595C1470.63 467.595 1473.76 468.02 1475.72 468.869C1477.68 469.718 1479.18 471.318 1480.23 473.669H1481.01V448.691H1492.86V520H1481.01V514.711H1480.23C1478.72 517.127 1476.99 518.792 1475.04 519.706C1473.14 520.555 1470.24 520.98 1466.32 520.98ZM1469.75 510.695C1472.75 510.695 1475.07 510.205 1476.7 509.225C1478.33 508.18 1479.48 506.483 1480.13 504.132C1480.85 501.781 1481.21 498.45 1481.21 494.141C1481.21 489.831 1480.85 486.533 1480.13 484.247C1479.48 481.897 1478.33 480.231 1476.7 479.252C1475.07 478.272 1472.75 477.783 1469.75 477.783C1466.42 477.783 1463.84 478.272 1462.01 479.252C1460.24 480.231 1458.97 481.897 1458.19 484.247C1457.47 486.533 1457.11 489.831 1457.11 494.141C1457.11 498.45 1457.47 501.814 1458.19 504.23C1458.97 506.581 1460.24 508.246 1462.01 509.225C1463.84 510.205 1466.42 510.695 1469.75 510.695ZM1532.79 520.882C1526.39 520.882 1521.46 520.098 1518 518.531C1514.54 516.898 1512.06 514.156 1510.55 510.303C1509.12 506.45 1508.4 500.997 1508.4 493.945C1508.4 487.023 1509.08 481.701 1510.46 477.978C1511.89 474.191 1514.28 471.514 1517.61 469.946C1521 468.379 1525.8 467.595 1532.01 467.595C1538.34 467.595 1543.17 468.542 1546.5 470.436C1549.9 472.33 1552.25 475.497 1553.55 479.937C1554.93 484.313 1555.48 490.549 1555.22 498.646H1520.45C1520.71 501.846 1521.23 504.328 1522.01 506.091C1522.8 507.789 1524.01 508.997 1525.64 509.715C1527.34 510.433 1529.69 510.792 1532.69 510.792C1535.63 510.792 1537.75 510.335 1539.06 509.421C1540.43 508.507 1541.51 506.809 1542.29 504.328H1554.44C1553.78 508.638 1552.71 511.968 1551.2 514.319C1549.7 516.67 1547.51 518.367 1544.64 519.412C1541.77 520.392 1537.82 520.882 1532.79 520.882ZM1543.56 489.341C1543.56 486.337 1543.17 484.019 1542.39 482.386C1541.67 480.688 1540.46 479.48 1538.76 478.762C1537.13 478.044 1534.88 477.685 1532.01 477.685C1529.26 477.685 1527.04 478.044 1525.34 478.762C1523.71 479.48 1522.5 480.688 1521.72 482.386C1520.94 484.019 1520.54 486.337 1520.54 489.341H1543.56ZM1570.76 509.813H1588.68V458.878H1571.74V448.691H1600.44V509.813H1617.19V520H1570.76V509.813Z" fill="#0E092D"/>
</svg>
