<svg width="1800" height="720" viewBox="0 0 1800 720" fill="none" xmlns="http://www.w3.org/2000/svg">
<mask id="path-1-inside-1_188_99" fill="white">
<path fill-rule="evenodd" clip-rule="evenodd" d="M333.802 203.317C333.799 203.519 333.797 203.723 333.797 203.926C333.797 223.792 350.064 239.896 370.13 239.896C390.196 239.896 406.463 223.792 406.463 203.926C406.463 203.723 406.461 203.519 406.458 203.317H524.082V508.145H216.175V203.317H333.802Z"/>
</mask>
<path fill-rule="evenodd" clip-rule="evenodd" d="M333.802 203.317C333.799 203.519 333.797 203.723 333.797 203.926C333.797 223.792 350.064 239.896 370.13 239.896C390.196 239.896 406.463 223.792 406.463 203.926C406.463 203.723 406.461 203.519 406.458 203.317H524.082V508.145H216.175V203.317H333.802Z" fill="url(#paint0_linear_188_99)"/>
<path d="M333.802 203.317L351.658 203.616L351.963 185.458H333.802V203.317ZM406.458 203.317V185.458H388.297L388.602 203.616L406.458 203.317ZM524.082 203.317H541.941V185.458H524.082V203.317ZM524.082 508.145V526.004H541.941V508.145H524.082ZM216.175 508.145H198.316V526.004H216.175V508.145ZM216.175 203.317V185.458H198.316V203.317H216.175ZM315.946 203.017C315.941 203.32 315.938 203.623 315.938 203.926H351.656C351.656 203.823 351.656 203.719 351.658 203.616L315.946 203.017ZM315.938 203.926C315.938 233.824 340.37 257.755 370.13 257.755V222.037C359.757 222.037 351.656 213.76 351.656 203.926H315.938ZM370.13 257.755C399.89 257.755 424.322 233.824 424.322 203.926H388.604C388.604 213.76 380.503 222.037 370.13 222.037V257.755ZM424.322 203.926C424.322 203.623 424.319 203.32 424.314 203.017L388.602 203.616C388.604 203.719 388.604 203.823 388.604 203.926H424.322ZM406.458 221.175H524.082V185.458H406.458V221.175ZM506.224 203.317V508.145H541.941V203.317H506.224ZM524.082 490.286H216.175V526.004H524.082V490.286ZM234.033 508.145V203.317H198.316V508.145H234.033ZM216.175 221.175H333.802V185.458H216.175V221.175Z" fill="#D5C5F1" mask="url(#path-1-inside-1_188_99)"/>
<path d="M234.034 229.181L362.432 357.578" stroke="#7B7BCE" stroke-width="14.7796" stroke-linecap="round" stroke-dasharray="14.78 27.71"/>
<path d="M367.972 500.755V372.666" stroke="#6B6BD7" stroke-width="14.7796" stroke-linecap="round" stroke-dasharray="14.78 27.71"/>
<circle cx="446.183" cy="356.347" r="15.7033" fill="#695AAA"/>
<rect x="192.159" y="320.938" width="221.693" height="72.6662" rx="36.3331" fill="white"/>
<rect x="326.406" y="453.954" width="221.693" height="72.6662" rx="36.3331" fill="white"/>
<circle cx="369.82" cy="203.009" r="15.7033" fill="#8654D6"/>
<circle cx="369.82" cy="203.009" r="15.7033" fill="#8654D6"/>
<circle cx="511.766" cy="357.271" r="36.3331" fill="white"/>
<circle cx="235.265" cy="229.181" r="49.2652" fill="white"/>
<circle cx="516.693" cy="229.181" r="49.2652" fill="white"/>
<circle cx="235.265" cy="486.592" r="49.2652" fill="white"/>
<path fill-rule="evenodd" clip-rule="evenodd" d="M1431.93 495.259C1431.93 506.922 1422.47 516.376 1410.81 516.376C1399.15 516.376 1389.69 506.922 1389.69 495.259C1389.69 483.597 1399.15 474.143 1410.81 474.143C1422.47 474.143 1431.93 483.597 1431.93 495.259ZM814.637 495.518C814.637 507.181 805.183 516.635 793.521 516.635C781.858 516.635 772.404 507.181 772.404 495.518C772.404 483.856 781.858 474.402 793.521 474.402C805.183 474.402 814.637 483.856 814.637 495.518ZM979.211 516.635C990.874 516.635 1000.33 507.181 1000.33 495.518C1000.33 483.856 990.874 474.402 979.211 474.402C967.549 474.402 958.095 483.856 958.095 495.518C958.095 507.181 967.549 516.635 979.211 516.635Z" fill="url(#paint1_linear_188_99)"/>
<path d="M723.767 214.262H705.844V203.036H754.294V214.262H736.372V270H723.767V214.262ZM769.224 198.309H781.238V225.489H782.026C783.667 222.403 785.506 220.27 787.541 219.088C789.576 217.906 792.399 217.315 796.01 217.315C801.065 217.315 804.938 217.906 807.63 219.088C810.322 220.27 812.226 222.305 813.342 225.193C814.523 228.016 815.114 232.054 815.114 237.306V270H803.1V237.109C803.1 234.614 802.805 232.678 802.214 231.299C801.689 229.92 800.737 228.968 799.358 228.443C797.979 227.852 796.01 227.557 793.449 227.557C790.233 227.557 787.738 228.016 785.965 228.935C784.258 229.855 783.044 231.43 782.322 233.662C781.599 235.894 781.238 239.078 781.238 243.214V270H769.224V198.309ZM854.959 270.886C848.525 270.886 843.568 270.098 840.089 268.523C836.609 266.882 834.114 264.124 832.604 260.251C831.16 256.377 830.438 250.896 830.438 243.805C830.438 236.846 831.127 231.496 832.506 227.754C833.95 223.946 836.347 221.254 839.695 219.679C843.109 218.103 847.934 217.315 854.171 217.315C860.539 217.315 865.397 218.267 868.745 220.171C872.159 222.075 874.523 225.259 875.836 229.723C877.214 234.122 877.772 240.391 877.51 248.532H842.551C842.813 251.749 843.338 254.244 844.126 256.016C844.914 257.723 846.129 258.938 847.77 259.66C849.477 260.382 851.84 260.743 854.86 260.743C857.814 260.743 859.948 260.284 861.261 259.365C862.64 258.445 863.723 256.739 864.511 254.244H876.722C876.065 258.577 874.982 261.925 873.472 264.288C871.962 266.652 869.763 268.359 866.874 269.409C863.986 270.394 860.014 270.886 854.959 270.886ZM865.791 239.177C865.791 236.157 865.397 233.826 864.609 232.185C863.887 230.478 862.673 229.264 860.966 228.542C859.324 227.819 857.059 227.458 854.171 227.458C851.413 227.458 849.181 227.819 847.474 228.542C845.833 229.264 844.619 230.478 843.831 232.185C843.043 233.826 842.649 236.157 842.649 239.177H865.791ZM701.216 328.036H712.048L715.889 380.721H715.987L716.676 368.51L722.979 328.036H737.16L743.265 368.51L744.053 380.721H744.151L748.09 328.036H758.923L750.946 395H737.849L730.266 336.702H729.872L722.191 395H709.192L701.216 328.036ZM792.957 395.886C786.523 395.886 781.567 395.098 778.087 393.523C774.608 391.882 772.113 389.124 770.603 385.251C769.159 381.377 768.436 375.896 768.436 368.805C768.436 361.846 769.126 356.496 770.504 352.754C771.949 348.946 774.345 346.254 777.693 344.679C781.107 343.103 785.932 342.315 792.169 342.315C798.537 342.315 803.396 343.267 806.744 345.171C810.158 347.075 812.521 350.259 813.834 354.723C815.213 359.122 815.771 365.391 815.508 373.532H780.549C780.812 376.749 781.337 379.244 782.125 381.016C782.912 382.723 784.127 383.938 785.768 384.66C787.475 385.382 789.839 385.743 792.859 385.743C795.813 385.743 797.947 385.284 799.26 384.365C800.638 383.445 801.721 381.739 802.509 379.244H814.72C814.064 383.577 812.981 386.925 811.471 389.288C809.961 391.652 807.761 393.359 804.873 394.409C801.984 395.394 798.012 395.886 792.957 395.886ZM803.789 364.177C803.789 361.157 803.396 358.826 802.608 357.185C801.886 355.478 800.671 354.264 798.964 353.542C797.323 352.819 795.058 352.458 792.169 352.458C789.412 352.458 787.18 352.819 785.473 353.542C783.832 354.264 782.617 355.478 781.829 357.185C781.041 358.826 780.648 361.157 780.648 364.177H803.789ZM858.011 395.985C854.794 395.985 852.201 395.558 850.232 394.705C848.328 393.785 846.293 392.079 844.126 389.584H843.338V395H831.423L831.521 323.309H843.437L843.338 347.534H844.126C845.899 345.105 847.77 343.431 849.739 342.512C851.709 341.593 854.466 341.134 858.011 341.134C863.657 341.134 867.99 341.954 871.01 343.595C874.096 345.237 876.262 348.027 877.51 351.966C878.823 355.839 879.479 361.354 879.479 368.51C879.479 375.731 878.823 381.312 877.51 385.251C876.262 389.124 874.096 391.882 871.01 393.523C867.99 395.164 863.657 395.985 858.011 395.985ZM854.663 385.645C858.011 385.645 860.572 385.152 862.344 384.168C864.183 383.117 865.463 381.377 866.185 378.948C866.973 376.519 867.367 373.04 867.367 368.51C867.367 364.046 866.973 360.599 866.185 358.17C865.463 355.741 864.183 354.034 862.344 353.049C860.572 351.999 858.011 351.474 854.663 351.474C851.643 351.474 849.313 351.999 847.671 353.049C846.03 354.034 844.848 355.741 844.126 358.17C843.47 360.599 843.141 364.046 843.141 368.51C843.141 372.974 843.47 376.454 844.126 378.948C844.848 381.377 846.03 383.117 847.671 384.168C849.313 385.152 851.643 385.645 854.663 385.645ZM907.309 328.036H924.838L944.238 395H931.83L927.497 380.229H904.848L900.613 395H888.304L907.309 328.036ZM924.641 369.298L916.074 339.459H915.975L907.802 369.298H924.641ZM978.272 395.886C971.97 395.886 967.112 395.361 963.698 394.311C960.35 393.26 957.986 391.455 956.608 388.894C955.229 386.334 954.605 382.723 954.736 378.062H966.849C966.915 380.032 967.276 381.574 967.932 382.69C968.654 383.741 969.803 384.496 971.379 384.955C973.02 385.415 975.318 385.678 978.272 385.743C981.161 385.809 983.393 385.678 984.969 385.349C986.544 385.021 987.66 384.496 988.317 383.774C988.973 382.986 989.302 381.87 989.302 380.426C989.302 379.113 988.875 378.029 988.021 377.176C987.234 376.257 985.855 375.469 983.885 374.812C981.916 374.156 979.126 373.499 975.515 372.843C970.263 371.858 966.193 370.775 963.304 369.593C960.481 368.346 958.446 366.803 957.198 364.965C956.017 363.061 955.426 360.566 955.426 357.481C955.426 353.476 956.082 350.423 957.395 348.322C958.774 346.156 961.072 344.613 964.289 343.694C967.571 342.775 972.167 342.315 978.075 342.315C983.853 342.315 988.317 342.808 991.468 343.792C994.619 344.711 996.851 346.32 998.164 348.618C999.478 350.85 1000.17 354.067 1000.23 358.268H988.415C988.284 356.036 987.463 354.526 985.953 353.738C984.509 352.885 981.85 352.458 977.977 352.458C975.22 352.458 973.086 352.622 971.576 352.951C970.066 353.213 968.983 353.738 968.326 354.526C967.67 355.248 967.341 356.266 967.341 357.579C967.341 358.301 967.768 358.958 968.622 359.549C969.541 360.139 971.051 360.763 973.152 361.42C975.318 362.01 978.436 362.765 982.507 363.685C987.431 364.801 991.238 366.048 993.93 367.427C996.622 368.74 998.526 370.414 999.642 372.449C1000.82 374.484 1001.41 377.11 1001.41 380.327C1001.41 384.397 1000.72 387.549 999.346 389.781C997.968 392.013 995.604 393.589 992.256 394.508C988.973 395.427 984.312 395.886 978.272 395.886ZM1040.27 395.886C1033.97 395.886 1029.11 395.361 1025.7 394.311C1022.35 393.26 1019.99 391.455 1018.61 388.894C1017.23 386.334 1016.61 382.723 1016.74 378.062H1028.85C1028.92 380.032 1029.28 381.574 1029.93 382.69C1030.66 383.741 1031.8 384.496 1033.38 384.955C1035.02 385.415 1037.32 385.678 1040.27 385.743C1043.16 385.809 1045.39 385.678 1046.97 385.349C1048.55 385.021 1049.66 384.496 1050.32 383.774C1050.97 382.986 1051.3 381.87 1051.3 380.426C1051.3 379.113 1050.88 378.029 1050.02 377.176C1049.24 376.257 1047.86 375.469 1045.89 374.812C1043.92 374.156 1041.13 373.499 1037.52 372.843C1032.26 371.858 1028.19 370.775 1025.31 369.593C1022.48 368.346 1020.45 366.803 1019.2 364.965C1018.02 363.061 1017.43 360.566 1017.43 357.481C1017.43 353.476 1018.08 350.423 1019.4 348.322C1020.78 346.156 1023.07 344.613 1026.29 343.694C1029.57 342.775 1034.17 342.315 1040.08 342.315C1045.85 342.315 1050.32 342.808 1053.47 343.792C1056.62 344.711 1058.85 346.32 1060.17 348.618C1061.48 350.85 1062.17 354.067 1062.23 358.268H1050.42C1050.29 356.036 1049.46 354.526 1047.95 353.738C1046.51 352.885 1043.85 352.458 1039.98 352.458C1037.22 352.458 1035.09 352.622 1033.58 352.951C1032.07 353.213 1030.98 353.738 1030.33 354.526C1029.67 355.248 1029.34 356.266 1029.34 357.579C1029.34 358.301 1029.77 358.958 1030.62 359.549C1031.54 360.139 1033.05 360.763 1035.15 361.42C1037.32 362.01 1040.44 362.765 1044.51 363.685C1049.43 364.801 1053.24 366.048 1055.93 367.427C1058.62 368.74 1060.53 370.414 1061.64 372.449C1062.82 374.484 1063.42 377.11 1063.42 380.327C1063.42 384.397 1062.73 387.549 1061.35 389.781C1059.97 392.013 1057.61 393.589 1054.26 394.508C1050.97 395.427 1046.31 395.886 1040.27 395.886ZM1102.96 395.886C1096.53 395.886 1091.57 395.098 1088.09 393.523C1084.62 391.882 1082.12 389.124 1080.61 385.251C1079.17 381.377 1078.44 375.896 1078.44 368.805C1078.44 361.846 1079.13 356.496 1080.51 352.754C1081.96 348.946 1084.35 346.254 1087.7 344.679C1091.11 343.103 1095.94 342.315 1102.18 342.315C1108.55 342.315 1113.4 343.267 1116.75 345.171C1120.17 347.075 1122.53 350.259 1123.84 354.723C1125.22 359.122 1125.78 365.391 1125.52 373.532H1090.56C1090.82 376.749 1091.34 379.244 1092.13 381.016C1092.92 382.723 1094.13 383.938 1095.78 384.66C1097.48 385.382 1099.85 385.743 1102.87 385.743C1105.82 385.743 1107.95 385.284 1109.27 384.365C1110.65 383.445 1111.73 381.739 1112.52 379.244H1124.73C1124.07 383.577 1122.99 386.925 1121.48 389.288C1119.97 391.652 1117.77 393.359 1114.88 394.409C1111.99 395.394 1108.02 395.886 1102.96 395.886ZM1113.8 364.177C1113.8 361.157 1113.4 358.826 1112.62 357.185C1111.89 355.478 1110.68 354.264 1108.97 353.542C1107.33 352.819 1105.07 352.458 1102.18 352.458C1099.42 352.458 1097.19 352.819 1095.48 353.542C1093.84 354.264 1092.62 355.478 1091.84 357.185C1091.05 358.826 1090.66 361.157 1090.66 364.177H1113.8ZM1137 343.595H1147.63V349.898H1148.42C1149.8 347.009 1151.15 345.04 1152.46 343.989C1153.77 342.873 1155.55 342.315 1157.78 342.315C1161.19 342.315 1163.65 342.873 1165.16 343.989C1166.67 345.04 1167.85 347.009 1168.71 349.898H1168.81C1169.73 347.009 1170.91 345.04 1172.35 343.989C1173.8 342.873 1176 342.315 1178.95 342.315C1182.17 342.315 1184.63 342.906 1186.34 344.088C1188.04 345.27 1189.26 347.305 1189.98 350.193C1190.7 353.016 1191.06 357.054 1191.06 362.306V395H1180.13V364.078C1180.13 361.19 1179.97 358.958 1179.64 357.382C1179.38 355.741 1178.88 354.592 1178.16 353.935C1177.44 353.279 1176.42 352.951 1175.11 352.951C1173.66 352.951 1172.52 353.345 1171.66 354.132C1170.87 354.855 1170.32 356.102 1169.99 357.874C1169.66 359.647 1169.5 362.175 1169.5 365.457V395H1158.66L1158.86 364.078C1158.93 359.811 1158.53 356.89 1157.68 355.314C1156.89 353.738 1155.38 352.951 1153.15 352.951C1151.77 352.951 1150.69 353.345 1149.9 354.132C1149.18 354.92 1148.65 356.233 1148.32 358.071C1148.06 359.91 1147.93 362.536 1147.93 365.95V395H1137V343.595ZM1230.02 395.985C1226.8 395.985 1224.21 395.558 1222.24 394.705C1220.34 393.785 1218.3 392.079 1216.14 389.584H1215.35V395H1203.43L1203.53 323.309H1215.45L1215.35 347.534H1216.14C1217.91 345.105 1219.78 343.431 1221.75 342.512C1223.72 341.593 1226.48 341.134 1230.02 341.134C1235.67 341.134 1240 341.954 1243.02 343.595C1246.1 345.237 1248.27 348.027 1249.52 351.966C1250.83 355.839 1251.49 361.354 1251.49 368.51C1251.49 375.731 1250.83 381.312 1249.52 385.251C1248.27 389.124 1246.1 391.882 1243.02 393.523C1240 395.164 1235.67 395.985 1230.02 395.985ZM1226.67 385.645C1230.02 385.645 1232.58 385.152 1234.35 384.168C1236.19 383.117 1237.47 381.377 1238.19 378.948C1238.98 376.519 1239.38 373.04 1239.38 368.51C1239.38 364.046 1238.98 360.599 1238.19 358.17C1237.47 355.741 1236.19 354.034 1234.35 353.049C1232.58 351.999 1230.02 351.474 1226.67 351.474C1223.65 351.474 1221.32 351.999 1219.68 353.049C1218.04 354.034 1216.86 355.741 1216.14 358.17C1215.48 360.599 1215.15 364.046 1215.15 368.51C1215.15 372.974 1215.48 376.454 1216.14 378.948C1216.86 381.377 1218.04 383.117 1219.68 384.168C1221.32 385.152 1223.65 385.645 1226.67 385.645ZM1265.14 384.758H1283.16V333.551H1266.12V323.309H1294.98V384.758H1311.82V395H1265.14V384.758ZM1345.46 390.273H1342.11L1325.37 343.595H1337.58L1349.89 381.41H1350.38L1362.49 343.595H1374.9L1349.3 416.172H1336.89L1345.46 390.273ZM732.531 520.886C725.572 520.886 720.222 519.869 716.48 517.834C712.737 515.733 710.079 512.253 708.503 507.395C706.927 502.537 706.14 495.611 706.14 486.617C706.14 477.557 706.927 470.565 708.503 465.641C710.079 460.717 712.737 457.238 716.48 455.203C720.222 453.102 725.572 452.051 732.531 452.051C738.374 452.051 742.904 452.675 746.121 453.922C749.338 455.104 751.668 457.139 753.113 460.028C754.557 462.851 755.378 466.889 755.575 472.141H743.265C742.805 469.711 742.182 467.84 741.394 466.527C740.672 465.149 739.589 464.197 738.144 463.672C736.766 463.081 734.895 462.785 732.531 462.785C728.92 462.785 726.13 463.507 724.161 464.952C722.191 466.33 720.78 468.727 719.926 472.141C719.138 475.554 718.744 480.38 718.744 486.617C718.744 492.788 719.138 497.547 719.926 500.896C720.78 504.244 722.191 506.64 724.161 508.084C726.13 509.463 728.92 510.152 732.531 510.152C736.405 510.152 739.129 509.562 740.705 508.38C742.28 507.132 743.331 504.802 743.856 501.388H756.165C755.837 506.509 754.918 510.481 753.408 513.304C751.898 516.061 749.502 518.03 746.219 519.212C743.002 520.328 738.44 520.886 732.531 520.886ZM792.071 520.886C785.703 520.886 780.779 520.098 777.299 518.523C773.82 516.882 771.325 514.19 769.815 510.448C768.371 506.64 767.649 501.224 767.649 494.199C767.649 487.109 768.371 481.66 769.815 477.852C771.325 474.044 773.787 471.353 777.201 469.777C780.68 468.136 785.637 467.315 792.071 467.315C798.505 467.315 803.428 468.136 806.842 469.777C810.322 471.353 812.784 474.044 814.228 477.852C815.738 481.66 816.493 487.109 816.493 494.199C816.493 501.224 815.738 506.64 814.228 510.448C812.784 514.19 810.322 516.882 806.842 518.523C803.363 520.098 798.439 520.886 792.071 520.886ZM792.071 510.645C795.353 510.645 797.848 510.152 799.555 509.168C801.328 508.183 802.575 506.542 803.297 504.244C804.085 501.88 804.479 498.532 804.479 494.199C804.479 489.801 804.085 486.42 803.297 484.056C802.575 481.693 801.328 480.019 799.555 479.034C797.848 477.983 795.353 477.458 792.071 477.458C788.788 477.458 786.261 477.983 784.488 479.034C782.781 480.019 781.534 481.693 780.746 484.056C780.024 486.42 779.663 489.801 779.663 494.199C779.663 498.532 780.024 501.88 780.746 504.244C781.534 506.542 782.781 508.183 784.488 509.168C786.261 510.152 788.788 510.645 792.071 510.645ZM826.991 468.595H837.627V474.898H838.415C839.793 472.009 841.139 470.04 842.452 468.989C843.765 467.873 845.538 467.315 847.77 467.315C851.184 467.315 853.646 467.873 855.156 468.989C856.665 470.04 857.847 472.009 858.701 474.898H858.799C859.718 472.009 860.9 470.04 862.344 468.989C863.789 467.873 865.988 467.315 868.942 467.315C872.159 467.315 874.621 467.906 876.328 469.088C878.035 470.27 879.249 472.305 879.972 475.193C880.694 478.016 881.055 482.054 881.055 487.306V520H870.124V489.078C870.124 486.19 869.96 483.958 869.632 482.382C869.369 480.741 868.877 479.592 868.154 478.935C867.432 478.279 866.415 477.951 865.102 477.951C863.657 477.951 862.508 478.345 861.655 479.132C860.867 479.855 860.309 481.102 859.981 482.874C859.653 484.647 859.488 487.175 859.488 490.457V520H848.656L848.853 489.078C848.919 484.811 848.525 481.89 847.671 480.314C846.884 478.738 845.374 477.951 843.141 477.951C841.763 477.951 840.68 478.345 839.892 479.132C839.17 479.92 838.644 481.233 838.316 483.071C838.053 484.91 837.922 487.536 837.922 490.95V520H826.991V468.595ZM891.455 468.595H903.37V473.618H904.158C906.259 471.254 908.229 469.646 910.067 468.792C911.905 467.939 914.301 467.512 917.256 467.512C923.098 467.512 927.596 468.333 930.747 469.974C933.898 471.55 936.13 474.241 937.443 478.049C938.822 481.857 939.511 487.273 939.511 494.298C939.511 501.257 938.855 506.64 937.542 510.448C936.229 514.19 933.996 516.882 930.845 518.523C927.76 520.098 923.328 520.886 917.551 520.886C914.071 520.886 911.38 520.46 909.476 519.606C907.572 518.753 905.799 517.144 904.158 514.781H903.37V541.172H891.455V468.595ZM914.695 510.645C918.043 510.645 920.604 510.152 922.376 509.168C924.215 508.183 925.495 506.542 926.217 504.244C927.005 501.88 927.399 498.565 927.399 494.298C927.399 489.965 927.005 486.617 926.217 484.253C925.495 481.89 924.215 480.216 922.376 479.231C920.604 478.246 918.043 477.754 914.695 477.754C911.675 477.754 909.345 478.246 907.703 479.231C906.062 480.216 904.88 481.89 904.158 484.253C903.502 486.617 903.173 489.965 903.173 494.298C903.173 498.565 903.502 501.88 904.158 504.244C904.88 506.542 906.062 508.183 907.703 509.168C909.345 510.152 911.675 510.645 914.695 510.645ZM978.075 520.886C971.707 520.886 966.783 520.098 963.304 518.523C959.824 516.882 957.33 514.19 955.82 510.448C954.375 506.64 953.653 501.224 953.653 494.199C953.653 487.109 954.375 481.66 955.82 477.852C957.33 474.044 959.792 471.353 963.205 469.777C966.685 468.136 971.642 467.315 978.075 467.315C984.509 467.315 989.433 468.136 992.847 469.777C996.326 471.353 998.788 474.044 1000.23 477.852C1001.74 481.66 1002.5 487.109 1002.5 494.199C1002.5 501.224 1001.74 506.64 1000.23 510.448C998.788 514.19 996.326 516.882 992.847 518.523C989.367 520.098 984.443 520.886 978.075 520.886ZM978.075 510.645C981.358 510.645 983.853 510.152 985.56 509.168C987.332 508.183 988.579 506.542 989.302 504.244C990.089 501.88 990.483 498.532 990.483 494.199C990.483 489.801 990.089 486.42 989.302 484.056C988.579 481.693 987.332 480.019 985.56 479.034C983.853 477.983 981.358 477.458 978.075 477.458C974.793 477.458 972.265 477.983 970.493 479.034C968.786 480.019 967.538 481.693 966.751 484.056C966.028 486.42 965.667 489.801 965.667 494.199C965.667 498.532 966.028 501.88 966.751 504.244C967.538 506.542 968.786 508.183 970.493 509.168C972.265 510.152 974.793 510.645 978.075 510.645ZM1017.23 468.595H1029.24V475.686H1030.03C1031.87 472.469 1033.77 470.27 1035.74 469.088C1037.71 467.906 1040.5 467.315 1044.11 467.315C1049.1 467.315 1052.94 467.939 1055.64 469.186C1058.33 470.368 1060.23 472.403 1061.35 475.292C1062.53 478.115 1063.12 482.185 1063.12 487.503V520H1051.11V487.306C1051.11 484.877 1050.81 483.006 1050.22 481.693C1049.69 480.314 1048.74 479.362 1047.36 478.837C1045.99 478.246 1044.05 477.951 1041.55 477.951C1038.34 477.951 1035.84 478.41 1034.07 479.329C1032.36 480.248 1031.12 481.824 1030.33 484.056C1029.61 486.223 1029.24 489.308 1029.24 493.313V520H1017.23V468.595ZM1102.96 520.886C1096.53 520.886 1091.57 520.098 1088.09 518.523C1084.62 516.882 1082.12 514.124 1080.61 510.251C1079.17 506.377 1078.44 500.896 1078.44 493.805C1078.44 486.846 1079.13 481.496 1080.51 477.754C1081.96 473.946 1084.35 471.254 1087.7 469.679C1091.11 468.103 1095.94 467.315 1102.18 467.315C1108.55 467.315 1113.4 468.267 1116.75 470.171C1120.17 472.075 1122.53 475.259 1123.84 479.723C1125.22 484.122 1125.78 490.391 1125.52 498.532H1090.56C1090.82 501.749 1091.34 504.244 1092.13 506.016C1092.92 507.723 1094.13 508.938 1095.78 509.66C1097.48 510.382 1099.85 510.743 1102.87 510.743C1105.82 510.743 1107.95 510.284 1109.27 509.365C1110.65 508.445 1111.73 506.739 1112.52 504.244H1124.73C1124.07 508.577 1122.99 511.925 1121.48 514.288C1119.97 516.652 1117.77 518.359 1114.88 519.409C1111.99 520.394 1108.02 520.886 1102.96 520.886ZM1113.8 489.177C1113.8 486.157 1113.4 483.826 1112.62 482.185C1111.89 480.478 1110.68 479.264 1108.97 478.542C1107.33 477.819 1105.07 477.458 1102.18 477.458C1099.42 477.458 1097.19 477.819 1095.48 478.542C1093.84 479.264 1092.62 480.478 1091.84 482.185C1091.05 483.826 1090.66 486.157 1090.66 489.177H1113.8ZM1141.23 468.595H1153.25V475.686H1154.04C1155.87 472.469 1157.78 470.27 1159.75 469.088C1161.72 467.906 1164.51 467.315 1168.12 467.315C1173.11 467.315 1176.95 467.939 1179.64 469.186C1182.33 470.368 1184.23 472.403 1185.35 475.292C1186.53 478.115 1187.12 482.185 1187.12 487.503V520H1175.11V487.306C1175.11 484.877 1174.81 483.006 1174.22 481.693C1173.7 480.314 1172.75 479.362 1171.37 478.837C1169.99 478.246 1168.05 477.951 1165.56 477.951C1162.34 477.951 1159.85 478.41 1158.07 479.329C1156.37 480.248 1155.12 481.824 1154.33 484.056C1153.61 486.223 1153.25 489.308 1153.25 493.313V520H1141.23V468.595ZM1232.48 521.083C1227.76 521.083 1224.18 520.46 1221.75 519.212C1219.32 517.965 1217.68 516.127 1216.82 513.698C1215.97 511.203 1215.54 507.822 1215.54 503.554V478.738H1202.84L1205.2 468.595H1215.94V458.157L1227.36 453.332V468.595H1246.56V478.738H1227.36V503.161C1227.36 505.261 1227.53 506.804 1227.85 507.789C1228.25 508.774 1229.04 509.496 1230.22 509.955C1231.46 510.415 1233.34 510.645 1235.83 510.645C1238.65 510.645 1242.76 510.251 1248.14 509.463V519.803C1241.31 520.657 1236.09 521.083 1232.48 521.083ZM1323.99 453.036H1338.86L1349.59 485.139H1350.68L1361.61 453.036H1376.28V520H1364.66V486.124L1365.84 468.694H1365.45L1355.11 497.646H1345.16L1334.82 468.694H1334.43L1335.61 486.124V520H1323.99V453.036ZM1412.09 520.886C1405.72 520.886 1400.79 520.098 1397.31 518.523C1393.84 516.882 1391.34 514.19 1389.83 510.448C1388.39 506.64 1387.66 501.224 1387.66 494.199C1387.66 487.109 1388.39 481.66 1389.83 477.852C1391.34 474.044 1393.8 471.353 1397.22 469.777C1400.7 468.136 1405.65 467.315 1412.09 467.315C1418.52 467.315 1423.44 468.136 1426.86 469.777C1430.34 471.353 1432.8 474.044 1434.24 477.852C1435.75 481.66 1436.51 487.109 1436.51 494.199C1436.51 501.224 1435.75 506.64 1434.24 510.448C1432.8 514.19 1430.34 516.882 1426.86 518.523C1423.38 520.098 1418.45 520.886 1412.09 520.886ZM1412.09 510.645C1415.37 510.645 1417.86 510.152 1419.57 509.168C1421.34 508.183 1422.59 506.542 1423.31 504.244C1424.1 501.88 1424.49 498.532 1424.49 494.199C1424.49 489.801 1424.1 486.42 1423.31 484.056C1422.59 481.693 1421.34 480.019 1419.57 479.034C1417.86 477.983 1415.37 477.458 1412.09 477.458C1408.8 477.458 1406.28 477.983 1404.5 479.034C1402.8 480.019 1401.55 481.693 1400.76 484.056C1400.04 486.42 1399.68 489.801 1399.68 494.199C1399.68 498.532 1400.04 501.88 1400.76 504.244C1401.55 506.542 1402.8 508.183 1404.5 509.168C1406.28 510.152 1408.8 510.645 1412.09 510.645ZM1470.15 520.985C1464.57 520.985 1460.24 520.197 1457.15 518.621C1454.13 516.98 1451.96 514.256 1450.65 510.448C1449.4 506.574 1448.78 501.093 1448.78 494.002C1448.78 486.978 1449.4 481.594 1450.65 477.852C1451.96 474.044 1454.13 471.353 1457.15 469.777C1460.24 468.136 1464.57 467.315 1470.15 467.315C1474.48 467.315 1477.63 467.742 1479.6 468.595C1481.57 469.449 1483.08 471.057 1484.13 473.421H1484.92V448.309H1496.84V520H1484.92V514.682H1484.13C1482.62 517.111 1480.88 518.785 1478.91 519.705C1477.01 520.558 1474.09 520.985 1470.15 520.985ZM1473.6 510.645C1476.62 510.645 1478.95 510.152 1480.59 509.168C1482.23 508.117 1483.38 506.41 1484.03 504.047C1484.76 501.683 1485.12 498.335 1485.12 494.002C1485.12 489.669 1484.76 486.354 1484.03 484.056C1483.38 481.693 1482.23 480.019 1480.59 479.034C1478.95 478.049 1476.62 477.557 1473.6 477.557C1470.25 477.557 1467.65 478.049 1465.82 479.034C1464.04 480.019 1462.76 481.693 1461.98 484.056C1461.25 486.354 1460.89 489.669 1460.89 494.002C1460.89 498.335 1461.25 501.716 1461.98 504.145C1462.76 506.509 1464.04 508.183 1465.82 509.168C1467.65 510.152 1470.25 510.645 1473.6 510.645ZM1536.98 520.886C1530.54 520.886 1525.58 520.098 1522.11 518.523C1518.63 516.882 1516.13 514.124 1514.62 510.251C1513.18 506.377 1512.45 500.896 1512.45 493.805C1512.45 486.846 1513.14 481.496 1514.52 477.754C1515.97 473.946 1518.36 471.254 1521.71 469.679C1525.13 468.103 1529.95 467.315 1536.19 467.315C1542.56 467.315 1547.41 468.267 1550.76 470.171C1554.18 472.075 1556.54 475.259 1557.85 479.723C1559.23 484.122 1559.79 490.391 1559.53 498.532H1524.57C1524.83 501.749 1525.36 504.244 1526.14 506.016C1526.93 507.723 1528.15 508.938 1529.79 509.66C1531.49 510.382 1533.86 510.743 1536.88 510.743C1539.83 510.743 1541.96 510.284 1543.28 509.365C1544.66 508.445 1545.74 506.739 1546.53 504.244H1558.74C1558.08 508.577 1557 511.925 1555.49 514.288C1553.98 516.652 1551.78 518.359 1548.89 519.409C1546 520.394 1542.03 520.886 1536.98 520.886ZM1547.81 489.177C1547.81 486.157 1547.41 483.826 1546.63 482.185C1545.9 480.478 1544.69 479.264 1542.98 478.542C1541.34 477.819 1539.08 477.458 1536.19 477.458C1533.43 477.458 1531.2 477.819 1529.49 478.542C1527.85 479.264 1526.64 480.478 1525.85 482.185C1525.06 483.826 1524.67 486.157 1524.67 489.177H1547.81ZM1575.15 509.758H1593.17V458.551H1576.13V448.309H1604.98V509.758H1621.82V520H1575.15V509.758Z" fill="white"/>
<defs>
<linearGradient id="paint0_linear_188_99" x1="524.082" y1="355.731" x2="240.807" y2="355.731" gradientUnits="userSpaceOnUse">
<stop stop-color="#384687"/>
<stop offset="1" stop-color="#8967C2"/>
</linearGradient>
<linearGradient id="paint1_linear_188_99" x1="1407.76" y1="516.667" x2="774.383" y2="516.667" gradientUnits="userSpaceOnUse">
<stop stop-color="#434B8F"/>
<stop offset="1" stop-color="#8867C2"/>
</linearGradient>
</defs>
</svg>
