<svg width="1800" height="720" viewBox="0 0 1800 720" fill="none" xmlns="http://www.w3.org/2000/svg">
<mask id="path-1-inside-1_188_135" fill="white">
<path fill-rule="evenodd" clip-rule="evenodd" d="M328.41 203.233C328.406 203.435 328.404 203.638 328.404 203.841C328.404 223.654 344.628 239.715 364.641 239.715C384.654 239.715 400.877 223.654 400.877 203.841C400.877 203.638 400.876 203.435 400.872 203.233H518.183V507.251H211.095V203.233H328.41Z"/>
</mask>
<path d="M328.41 203.233L346.218 203.532L346.522 185.422H328.41V203.233ZM400.872 203.233V185.422H382.759L383.064 203.532L400.872 203.233ZM518.183 203.233H535.994V185.422H518.183V203.233ZM518.183 507.251V525.062H535.994V507.251H518.183ZM211.095 507.251H193.284V525.062H211.095V507.251ZM211.095 203.233V185.422H193.284V203.233H211.095ZM310.601 202.934C310.596 203.236 310.593 203.538 310.593 203.841H346.216C346.216 203.738 346.216 203.635 346.218 203.532L310.601 202.934ZM310.593 203.841C310.593 233.659 334.96 257.526 364.641 257.526V221.904C354.296 221.904 346.216 213.649 346.216 203.841H310.593ZM364.641 257.526C394.321 257.526 418.689 233.659 418.689 203.841H383.066C383.066 213.649 374.986 221.904 364.641 221.904V257.526ZM418.689 203.841C418.689 203.539 418.686 203.236 418.681 202.933L383.064 203.532C383.065 203.634 383.066 203.737 383.066 203.841H418.689ZM400.872 221.044H518.183V185.422H400.872V221.044ZM500.372 203.233V507.251H535.994V203.233H500.372ZM518.183 489.44H211.095V525.062H518.183V489.44ZM228.906 507.251V203.233H193.284V507.251H228.906ZM211.095 221.044H328.41V185.422H211.095V221.044Z" fill="white" mask="url(#path-1-inside-1_188_135)"/>
<rect x="187.143" y="320.542" width="221.104" height="72.4729" rx="36.2365" fill="white"/>
<rect x="321.033" y="453.204" width="221.104" height="72.4729" rx="36.2365" fill="white"/>
<circle cx="364.332" cy="202.926" r="15.6615" fill="#8654D6"/>
<circle cx="364.332" cy="202.926" r="15.6615" fill="#8654D6"/>
<circle cx="505.9" cy="356.778" r="36.2365" fill="white"/>
<circle cx="230.134" cy="229.029" r="49.1342" fill="white"/>
<circle cx="510.814" cy="229.029" r="49.1342" fill="white"/>
<circle cx="230.134" cy="485.755" r="49.1342" fill="white"/>
<path d="M717.337 213.411H699.462V202.214H747.783V213.411H729.908V269H717.337V213.411ZM762.673 197.5H774.656V224.607H775.441C777.078 221.53 778.912 219.402 780.941 218.223C782.971 217.045 785.787 216.455 789.388 216.455C794.429 216.455 798.292 217.045 800.977 218.223C803.662 219.402 805.56 221.432 806.673 224.313C807.852 227.128 808.441 231.155 808.441 236.393V269H796.459V236.196C796.459 233.708 796.164 231.777 795.575 230.402C795.051 229.027 794.102 228.077 792.727 227.554C791.352 226.964 789.388 226.67 786.834 226.67C783.626 226.67 781.138 227.128 779.37 228.045C777.667 228.961 776.456 230.533 775.736 232.759C775.016 234.985 774.656 238.161 774.656 242.286V269H762.673V197.5ZM848.18 269.884C841.763 269.884 836.82 269.098 833.349 267.527C829.879 265.89 827.391 263.14 825.885 259.277C824.445 255.414 823.724 249.946 823.724 242.875C823.724 235.935 824.412 230.598 825.787 226.866C827.227 223.068 829.617 220.384 832.956 218.812C836.361 217.241 841.174 216.455 847.394 216.455C853.745 216.455 858.59 217.405 861.93 219.304C865.334 221.202 867.692 224.378 869.001 228.83C870.376 233.217 870.933 239.47 870.671 247.589H835.805C836.067 250.798 836.59 253.286 837.376 255.054C838.162 256.756 839.373 257.967 841.01 258.688C842.712 259.408 845.07 259.768 848.081 259.768C851.028 259.768 853.156 259.31 854.465 258.393C855.84 257.476 856.921 255.774 857.706 253.286H869.885C869.23 257.607 868.15 260.946 866.644 263.304C865.138 265.661 862.945 267.363 860.064 268.411C857.183 269.393 853.221 269.884 848.18 269.884ZM858.983 238.259C858.983 235.247 858.59 232.923 857.805 231.286C857.084 229.583 855.873 228.372 854.171 227.652C852.534 226.932 850.275 226.571 847.394 226.571C844.644 226.571 842.418 226.932 840.715 227.652C839.078 228.372 837.867 229.583 837.081 231.286C836.296 232.923 835.903 235.247 835.903 238.259H858.983ZM694.846 327.214H705.649L709.48 379.759H709.578L710.265 367.58L716.551 327.214H730.694L736.783 367.58L737.569 379.759H737.667L741.596 327.214H752.399L744.444 394H731.381L723.819 335.857H723.426L715.765 394H702.801L694.846 327.214ZM786.343 394.884C779.926 394.884 774.983 394.098 771.513 392.527C768.042 390.89 765.554 388.14 764.048 384.277C762.608 380.414 761.888 374.946 761.888 367.875C761.888 360.935 762.575 355.598 763.95 351.866C765.391 348.068 767.781 345.384 771.12 343.812C774.525 342.241 779.337 341.455 785.557 341.455C791.909 341.455 796.754 342.405 800.093 344.304C803.498 346.202 805.855 349.378 807.164 353.83C808.539 358.217 809.096 364.47 808.834 372.589H773.968C774.23 375.798 774.754 378.286 775.539 380.054C776.325 381.756 777.537 382.967 779.173 383.688C780.876 384.408 783.233 384.768 786.245 384.768C789.191 384.768 791.319 384.31 792.629 383.393C794.004 382.476 795.084 380.774 795.87 378.286H808.048C807.394 382.607 806.313 385.946 804.807 388.304C803.301 390.661 801.108 392.363 798.227 393.411C795.346 394.393 791.385 394.884 786.343 394.884ZM797.147 363.259C797.147 360.247 796.754 357.923 795.968 356.286C795.248 354.583 794.037 353.372 792.334 352.652C790.697 351.932 788.438 351.571 785.557 351.571C782.807 351.571 780.581 351.932 778.879 352.652C777.242 353.372 776.031 354.583 775.245 356.286C774.459 357.923 774.066 360.247 774.066 363.259H797.147ZM851.224 394.982C848.016 394.982 845.43 394.557 843.465 393.705C841.567 392.789 839.537 391.086 837.376 388.598H836.59V394H824.706L824.805 322.5H836.689L836.59 346.661H837.376C839.144 344.238 841.01 342.568 842.974 341.652C844.939 340.735 847.689 340.277 851.224 340.277C856.855 340.277 861.177 341.095 864.189 342.732C867.266 344.369 869.427 347.152 870.671 351.08C871.98 354.943 872.635 360.443 872.635 367.58C872.635 374.783 871.98 380.348 870.671 384.277C869.427 388.14 867.266 390.89 864.189 392.527C861.177 394.164 856.855 394.982 851.224 394.982ZM847.885 384.67C851.224 384.67 853.778 384.179 855.546 383.196C857.379 382.149 858.656 380.414 859.376 377.991C860.162 375.568 860.555 372.098 860.555 367.58C860.555 363.128 860.162 359.69 859.376 357.268C858.656 354.845 857.379 353.143 855.546 352.161C853.778 351.113 851.224 350.589 847.885 350.589C844.873 350.589 842.549 351.113 840.912 352.161C839.275 353.143 838.096 354.845 837.376 357.268C836.721 359.69 836.394 363.128 836.394 367.58C836.394 372.033 836.721 375.503 837.376 377.991C838.096 380.414 839.275 382.149 840.912 383.196C842.549 384.179 844.873 384.67 847.885 384.67ZM900.391 327.214H917.873L937.222 394H924.847L920.525 379.268H897.936L893.713 394H881.436L900.391 327.214ZM917.677 368.366L909.132 338.607H909.034L900.882 368.366H917.677ZM971.165 394.884C964.88 394.884 960.034 394.36 956.63 393.313C953.29 392.265 950.933 390.464 949.558 387.911C948.183 385.357 947.561 381.756 947.692 377.107H959.773C959.838 379.071 960.198 380.61 960.853 381.723C961.573 382.771 962.719 383.524 964.29 383.982C965.927 384.44 968.219 384.702 971.165 384.768C974.046 384.833 976.273 384.702 977.844 384.375C979.415 384.048 980.529 383.524 981.183 382.804C981.838 382.018 982.165 380.905 982.165 379.464C982.165 378.155 981.74 377.074 980.889 376.223C980.103 375.307 978.728 374.521 976.764 373.866C974.799 373.211 972.017 372.557 968.415 371.902C963.177 370.92 959.118 369.839 956.237 368.661C953.421 367.417 951.392 365.878 950.148 364.045C948.969 362.146 948.38 359.658 948.38 356.58C948.38 352.586 949.034 349.542 950.344 347.446C951.719 345.286 954.011 343.747 957.219 342.83C960.493 341.914 965.076 341.455 970.969 341.455C976.731 341.455 981.183 341.946 984.326 342.929C987.469 343.845 989.695 345.449 991.005 347.741C992.314 349.967 993.002 353.176 993.067 357.366H981.282C981.151 355.14 980.332 353.634 978.826 352.848C977.386 351.997 974.734 351.571 970.871 351.571C968.121 351.571 965.993 351.735 964.487 352.063C962.981 352.324 961.901 352.848 961.246 353.634C960.591 354.354 960.264 355.369 960.264 356.679C960.264 357.399 960.689 358.054 961.54 358.643C962.457 359.232 963.963 359.854 966.058 360.509C968.219 361.098 971.329 361.851 975.389 362.768C980.299 363.881 984.097 365.125 986.782 366.5C989.466 367.81 991.365 369.479 992.478 371.509C993.657 373.539 994.246 376.158 994.246 379.366C994.246 383.426 993.558 386.568 992.183 388.795C990.808 391.021 988.451 392.592 985.112 393.509C981.838 394.426 977.189 394.884 971.165 394.884ZM1033 394.884C1026.72 394.884 1021.87 394.36 1018.47 393.313C1015.13 392.265 1012.77 390.464 1011.39 387.911C1010.02 385.357 1009.4 381.756 1009.53 377.107H1021.61C1021.67 379.071 1022.03 380.61 1022.69 381.723C1023.41 382.771 1024.56 383.524 1026.13 383.982C1027.76 384.44 1030.06 384.702 1033 384.768C1035.88 384.833 1038.11 384.702 1039.68 384.375C1041.25 384.048 1042.37 383.524 1043.02 382.804C1043.67 382.018 1044 380.905 1044 379.464C1044 378.155 1043.58 377.074 1042.73 376.223C1041.94 375.307 1040.56 374.521 1038.6 373.866C1036.64 373.211 1033.85 372.557 1030.25 371.902C1025.01 370.92 1020.95 369.839 1018.07 368.661C1015.26 367.417 1013.23 365.878 1011.98 364.045C1010.81 362.146 1010.22 359.658 1010.22 356.58C1010.22 352.586 1010.87 349.542 1012.18 347.446C1013.56 345.286 1015.85 343.747 1019.06 342.83C1022.33 341.914 1026.91 341.455 1032.81 341.455C1038.57 341.455 1043.02 341.946 1046.16 342.929C1049.31 343.845 1051.53 345.449 1052.84 347.741C1054.15 349.967 1054.84 353.176 1054.9 357.366H1043.12C1042.99 355.14 1042.17 353.634 1040.66 352.848C1039.22 351.997 1036.57 351.571 1032.71 351.571C1029.96 351.571 1027.83 351.735 1026.32 352.063C1024.82 352.324 1023.74 352.848 1023.08 353.634C1022.43 354.354 1022.1 355.369 1022.1 356.679C1022.1 357.399 1022.53 358.054 1023.38 358.643C1024.29 359.232 1025.8 359.854 1027.89 360.509C1030.06 361.098 1033.17 361.851 1037.23 362.768C1042.14 363.881 1045.93 365.125 1048.62 366.5C1051.3 367.81 1053.2 369.479 1054.31 371.509C1055.49 373.539 1056.08 376.158 1056.08 379.366C1056.08 383.426 1055.39 386.568 1054.02 388.795C1052.64 391.021 1050.29 392.592 1046.95 393.509C1043.67 394.426 1039.03 394.884 1033 394.884ZM1095.53 394.884C1089.11 394.884 1084.17 394.098 1080.7 392.527C1077.23 390.89 1074.74 388.14 1073.23 384.277C1071.79 380.414 1071.07 374.946 1071.07 367.875C1071.07 360.935 1071.76 355.598 1073.13 351.866C1074.57 348.068 1076.96 345.384 1080.3 343.812C1083.71 342.241 1088.52 341.455 1094.74 341.455C1101.09 341.455 1105.94 342.405 1109.28 344.304C1112.68 346.202 1115.04 349.378 1116.35 353.83C1117.72 358.217 1118.28 364.47 1118.02 372.589H1083.15C1083.41 375.798 1083.94 378.286 1084.72 380.054C1085.51 381.756 1086.72 382.967 1088.36 383.688C1090.06 384.408 1092.42 384.768 1095.43 384.768C1098.37 384.768 1100.5 384.31 1101.81 383.393C1103.19 382.476 1104.27 380.774 1105.05 378.286H1117.23C1116.58 382.607 1115.5 385.946 1113.99 388.304C1112.48 390.661 1110.29 392.363 1107.41 393.411C1104.53 394.393 1100.57 394.884 1095.53 394.884ZM1106.33 363.259C1106.33 360.247 1105.94 357.923 1105.15 356.286C1104.43 354.583 1103.22 353.372 1101.52 352.652C1099.88 351.932 1097.62 351.571 1094.74 351.571C1091.99 351.571 1089.76 351.932 1088.06 352.652C1086.43 353.372 1085.21 354.583 1084.43 356.286C1083.64 357.923 1083.25 360.247 1083.25 363.259H1106.33ZM1129.47 342.732H1140.08V349.018H1140.86C1142.24 346.137 1143.58 344.173 1144.89 343.125C1146.2 342.012 1147.97 341.455 1150.19 341.455C1153.6 341.455 1156.05 342.012 1157.56 343.125C1159.07 344.173 1160.24 346.137 1161.09 349.018H1161.19C1162.11 346.137 1163.29 344.173 1164.73 343.125C1166.17 342.012 1168.36 341.455 1171.31 341.455C1174.52 341.455 1176.97 342.045 1178.68 343.223C1180.38 344.402 1181.59 346.432 1182.31 349.313C1183.03 352.128 1183.39 356.155 1183.39 361.393V394H1172.49V363.161C1172.49 360.28 1172.32 358.054 1172 356.482C1171.73 354.845 1171.24 353.699 1170.52 353.045C1169.8 352.39 1168.79 352.063 1167.48 352.063C1166.04 352.063 1164.89 352.455 1164.04 353.241C1163.26 353.961 1162.7 355.205 1162.37 356.973C1162.04 358.741 1161.88 361.262 1161.88 364.536V394H1151.08L1151.27 363.161C1151.34 358.905 1150.95 355.991 1150.09 354.42C1149.31 352.848 1147.8 352.063 1145.58 352.063C1144.2 352.063 1143.12 352.455 1142.34 353.241C1141.62 354.027 1141.09 355.336 1140.76 357.17C1140.5 359.003 1140.37 361.622 1140.37 365.027V394H1129.47V342.732ZM1222.24 394.982C1219.04 394.982 1216.45 394.557 1214.49 393.705C1212.59 392.789 1210.56 391.086 1208.4 388.598H1207.61V394H1195.73L1195.82 322.5H1207.71L1207.61 346.661H1208.4C1210.16 344.238 1212.03 342.568 1213.99 341.652C1215.96 340.735 1218.71 340.277 1222.24 340.277C1227.88 340.277 1232.2 341.095 1235.21 342.732C1238.29 344.369 1240.45 347.152 1241.69 351.08C1243 354.943 1243.65 360.443 1243.65 367.58C1243.65 374.783 1243 380.348 1241.69 384.277C1240.45 388.14 1238.29 390.89 1235.21 392.527C1232.2 394.164 1227.88 394.982 1222.24 394.982ZM1218.9 384.67C1222.24 384.67 1224.8 384.179 1226.57 383.196C1228.4 382.149 1229.68 380.414 1230.4 377.991C1231.18 375.568 1231.57 372.098 1231.57 367.58C1231.57 363.128 1231.18 359.69 1230.4 357.268C1229.68 354.845 1228.4 353.143 1226.57 352.161C1224.8 351.113 1222.24 350.589 1218.9 350.589C1215.89 350.589 1213.57 351.113 1211.93 352.161C1210.29 353.143 1209.12 354.845 1208.4 357.268C1207.74 359.69 1207.41 363.128 1207.41 367.58C1207.41 372.033 1207.74 375.503 1208.4 377.991C1209.12 380.414 1210.29 382.149 1211.93 383.196C1213.57 384.179 1215.89 384.67 1218.9 384.67ZM1257.27 383.786H1275.24V332.714H1258.25V322.5H1287.03V383.786H1303.82V394H1257.27V383.786ZM1337.37 389.286H1334.03L1317.34 342.732H1329.52L1341.79 380.446H1342.28L1354.36 342.732H1366.74L1341.2 415.116H1328.83L1337.37 389.286ZM726.078 519.884C719.137 519.884 713.801 518.869 710.069 516.839C706.337 514.744 703.685 511.274 702.114 506.429C700.542 501.583 699.756 494.676 699.756 485.705C699.756 476.67 700.542 469.696 702.114 464.786C703.685 459.875 706.337 456.405 710.069 454.375C713.801 452.28 719.137 451.232 726.078 451.232C731.905 451.232 736.423 451.854 739.631 453.098C742.84 454.277 745.164 456.307 746.605 459.188C748.045 462.003 748.864 466.03 749.06 471.268H736.783C736.325 468.845 735.703 466.979 734.917 465.67C734.197 464.295 733.117 463.345 731.676 462.821C730.301 462.232 728.435 461.938 726.078 461.938C722.477 461.938 719.694 462.658 717.73 464.098C715.765 465.473 714.358 467.863 713.506 471.268C712.721 474.673 712.328 479.485 712.328 485.705C712.328 491.86 712.721 496.607 713.506 499.946C714.358 503.286 715.765 505.676 717.73 507.116C719.694 508.491 722.477 509.179 726.078 509.179C729.941 509.179 732.658 508.589 734.23 507.411C735.801 506.167 736.849 503.842 737.372 500.438H749.649C749.322 505.545 748.405 509.506 746.899 512.321C745.393 515.071 743.003 517.036 739.73 518.214C736.521 519.327 731.971 519.884 726.078 519.884ZM785.459 519.884C779.108 519.884 774.197 519.098 770.727 517.527C767.257 515.89 764.769 513.205 763.263 509.473C761.822 505.676 761.102 500.274 761.102 493.268C761.102 486.196 761.822 480.762 763.263 476.964C764.769 473.167 767.224 470.482 770.629 468.911C774.099 467.274 779.042 466.455 785.459 466.455C791.876 466.455 796.787 467.274 800.191 468.911C803.662 470.482 806.117 473.167 807.557 476.964C809.063 480.762 809.816 486.196 809.816 493.268C809.816 500.274 809.063 505.676 807.557 509.473C806.117 513.205 803.662 515.89 800.191 517.527C796.721 519.098 791.81 519.884 785.459 519.884ZM785.459 509.67C788.733 509.67 791.221 509.179 792.923 508.196C794.691 507.214 795.935 505.577 796.656 503.286C797.441 500.929 797.834 497.589 797.834 493.268C797.834 488.881 797.441 485.509 796.656 483.152C795.935 480.795 794.691 479.125 792.923 478.143C791.221 477.095 788.733 476.571 785.459 476.571C782.185 476.571 779.664 477.095 777.897 478.143C776.194 479.125 774.95 480.795 774.164 483.152C773.444 485.509 773.084 488.881 773.084 493.268C773.084 497.589 773.444 500.929 774.164 503.286C774.95 505.577 776.194 507.214 777.897 508.196C779.664 509.179 782.185 509.67 785.459 509.67ZM820.287 467.732H830.894V474.018H831.68C833.055 471.137 834.397 469.173 835.706 468.125C837.016 467.012 838.784 466.455 841.01 466.455C844.415 466.455 846.87 467.012 848.376 468.125C849.882 469.173 851.061 471.137 851.912 474.018H852.01C852.927 471.137 854.105 469.173 855.546 468.125C856.986 467.012 859.18 466.455 862.126 466.455C865.334 466.455 867.79 467.045 869.492 468.223C871.195 469.402 872.406 471.432 873.126 474.313C873.846 477.128 874.206 481.155 874.206 486.393V519H863.305V488.161C863.305 485.28 863.141 483.054 862.814 481.482C862.552 479.845 862.061 478.699 861.34 478.045C860.62 477.39 859.605 477.063 858.296 477.063C856.855 477.063 855.709 477.455 854.858 478.241C854.073 478.961 853.516 480.205 853.189 481.973C852.861 483.741 852.698 486.262 852.698 489.536V519H841.894L842.09 488.161C842.156 483.905 841.763 480.991 840.912 479.42C840.126 477.848 838.62 477.063 836.394 477.063C835.019 477.063 833.939 477.455 833.153 478.241C832.433 479.027 831.909 480.336 831.581 482.17C831.32 484.003 831.189 486.622 831.189 490.027V519H820.287V467.732ZM884.579 467.732H896.463V472.741H897.248C899.344 470.384 901.308 468.78 903.141 467.929C904.975 467.077 907.365 466.652 910.311 466.652C916.138 466.652 920.623 467.47 923.766 469.107C926.909 470.679 929.135 473.363 930.445 477.161C931.82 480.958 932.507 486.36 932.507 493.366C932.507 500.307 931.853 505.676 930.543 509.473C929.234 513.205 927.007 515.89 923.865 517.527C920.787 519.098 916.367 519.884 910.606 519.884C907.135 519.884 904.451 519.458 902.552 518.607C900.653 517.756 898.885 516.152 897.248 513.795H896.463V540.116H884.579V467.732ZM907.757 509.67C911.097 509.67 913.65 509.179 915.418 508.196C917.251 507.214 918.528 505.577 919.248 503.286C920.034 500.929 920.427 497.622 920.427 493.366C920.427 489.045 920.034 485.705 919.248 483.348C918.528 480.991 917.251 479.321 915.418 478.339C913.65 477.357 911.097 476.866 907.757 476.866C904.745 476.866 902.421 477.357 900.784 478.339C899.147 479.321 897.969 480.991 897.248 483.348C896.594 485.705 896.266 489.045 896.266 493.366C896.266 497.622 896.594 500.929 897.248 503.286C897.969 505.577 899.147 507.214 900.784 508.196C902.421 509.179 904.745 509.67 907.757 509.67ZM970.969 519.884C964.618 519.884 959.707 519.098 956.237 517.527C952.767 515.89 950.279 513.205 948.773 509.473C947.332 505.676 946.612 500.274 946.612 493.268C946.612 486.196 947.332 480.762 948.773 476.964C950.279 473.167 952.734 470.482 956.139 468.911C959.609 467.274 964.552 466.455 970.969 466.455C977.386 466.455 982.296 467.274 985.701 468.911C989.171 470.482 991.627 473.167 993.067 476.964C994.573 480.762 995.326 486.196 995.326 493.268C995.326 500.274 994.573 505.676 993.067 509.473C991.627 513.205 989.171 515.89 985.701 517.527C982.231 519.098 977.32 519.884 970.969 519.884ZM970.969 509.67C974.243 509.67 976.731 509.179 978.433 508.196C980.201 507.214 981.445 505.577 982.165 503.286C982.951 500.929 983.344 497.589 983.344 493.268C983.344 488.881 982.951 485.509 982.165 483.152C981.445 480.795 980.201 479.125 978.433 478.143C976.731 477.095 974.243 476.571 970.969 476.571C967.695 476.571 965.174 477.095 963.407 478.143C961.704 479.125 960.46 480.795 959.674 483.152C958.954 485.509 958.594 488.881 958.594 493.268C958.594 497.589 958.954 500.929 959.674 503.286C960.46 505.577 961.704 507.214 963.407 508.196C965.174 509.179 967.695 509.67 970.969 509.67ZM1010.02 467.732H1022V474.804H1022.79C1024.62 471.595 1026.52 469.402 1028.48 468.223C1030.45 467.045 1033.23 466.455 1036.83 466.455C1041.81 466.455 1045.64 467.077 1048.32 468.321C1051.01 469.5 1052.91 471.53 1054.02 474.411C1055.2 477.226 1055.79 481.286 1055.79 486.589V519H1043.81V486.393C1043.81 483.97 1043.51 482.104 1042.92 480.795C1042.4 479.42 1041.45 478.47 1040.07 477.946C1038.7 477.357 1036.77 477.063 1034.28 477.063C1031.07 477.063 1028.58 477.521 1026.81 478.438C1025.11 479.354 1023.87 480.926 1023.08 483.152C1022.36 485.313 1022 488.39 1022 492.384V519H1010.02V467.732ZM1095.53 519.884C1089.11 519.884 1084.17 519.098 1080.7 517.527C1077.23 515.89 1074.74 513.14 1073.23 509.277C1071.79 505.414 1071.07 499.946 1071.07 492.875C1071.07 485.935 1071.76 480.598 1073.13 476.866C1074.57 473.068 1076.96 470.384 1080.3 468.812C1083.71 467.241 1088.52 466.455 1094.74 466.455C1101.09 466.455 1105.94 467.405 1109.28 469.304C1112.68 471.202 1115.04 474.378 1116.35 478.83C1117.72 483.217 1118.28 489.47 1118.02 497.589H1083.15C1083.41 500.798 1083.94 503.286 1084.72 505.054C1085.51 506.756 1086.72 507.967 1088.36 508.688C1090.06 509.408 1092.42 509.768 1095.43 509.768C1098.37 509.768 1100.5 509.31 1101.81 508.393C1103.19 507.476 1104.27 505.774 1105.05 503.286H1117.23C1116.58 507.607 1115.5 510.946 1113.99 513.304C1112.48 515.661 1110.29 517.363 1107.41 518.411C1104.53 519.393 1100.57 519.884 1095.53 519.884ZM1106.33 488.259C1106.33 485.247 1105.94 482.923 1105.15 481.286C1104.43 479.583 1103.22 478.372 1101.52 477.652C1099.88 476.932 1097.62 476.571 1094.74 476.571C1091.99 476.571 1089.76 476.932 1088.06 477.652C1086.43 478.372 1085.21 479.583 1084.43 481.286C1083.64 482.923 1083.25 485.247 1083.25 488.259H1106.33ZM1133.69 467.732H1145.68V474.804H1146.46C1148.29 471.595 1150.19 469.402 1152.16 468.223C1154.12 467.045 1156.9 466.455 1160.51 466.455C1165.48 466.455 1169.31 467.077 1172 468.321C1174.68 469.5 1176.58 471.53 1177.69 474.411C1178.87 477.226 1179.46 481.286 1179.46 486.589V519H1167.48V486.393C1167.48 483.97 1167.18 482.104 1166.59 480.795C1166.07 479.42 1165.12 478.47 1163.75 477.946C1162.37 477.357 1160.44 477.063 1157.95 477.063C1154.74 477.063 1152.26 477.521 1150.49 478.438C1148.79 479.354 1147.54 480.926 1146.76 483.152C1146.04 485.313 1145.68 488.39 1145.68 492.384V519H1133.69V467.732ZM1224.7 520.08C1219.99 520.08 1216.42 519.458 1213.99 518.214C1211.57 516.97 1209.93 515.137 1209.08 512.714C1208.23 510.226 1207.81 506.854 1207.81 502.598V477.848H1195.14L1197.49 467.732H1208.2V457.321L1219.59 452.509V467.732H1238.74V477.848H1219.59V502.205C1219.59 504.301 1219.76 505.839 1220.08 506.821C1220.48 507.804 1221.26 508.524 1222.44 508.982C1223.68 509.44 1225.55 509.67 1228.04 509.67C1230.85 509.67 1234.95 509.277 1240.32 508.491V518.804C1233.51 519.655 1228.3 520.08 1224.7 520.08ZM1315.96 452.214H1330.79L1341.5 484.232H1342.58L1353.48 452.214H1368.11V519H1356.52V485.214L1357.7 467.83H1357.31L1347 496.705H1337.08L1326.77 467.83H1326.37L1327.55 485.214V519H1315.96V452.214ZM1403.83 519.884C1397.47 519.884 1392.56 519.098 1389.09 517.527C1385.62 515.89 1383.13 513.205 1381.63 509.473C1380.19 505.676 1379.47 500.274 1379.47 493.268C1379.47 486.196 1380.19 480.762 1381.63 476.964C1383.13 473.167 1385.59 470.482 1389 468.911C1392.47 467.274 1397.41 466.455 1403.83 466.455C1410.24 466.455 1415.15 467.274 1418.56 468.911C1422.03 470.482 1424.48 473.167 1425.92 476.964C1427.43 480.762 1428.18 486.196 1428.18 493.268C1428.18 500.274 1427.43 505.676 1425.92 509.473C1424.48 513.205 1422.03 515.89 1418.56 517.527C1415.09 519.098 1410.18 519.884 1403.83 519.884ZM1403.83 509.67C1407.1 509.67 1409.59 509.179 1411.29 508.196C1413.06 507.214 1414.3 505.577 1415.02 503.286C1415.81 500.929 1416.2 497.589 1416.2 493.268C1416.2 488.881 1415.81 485.509 1415.02 483.152C1414.3 480.795 1413.06 479.125 1411.29 478.143C1409.59 477.095 1407.1 476.571 1403.83 476.571C1400.55 476.571 1398.03 477.095 1396.26 478.143C1394.56 479.125 1393.32 480.795 1392.53 483.152C1391.81 485.509 1391.45 488.881 1391.45 493.268C1391.45 497.589 1391.81 500.929 1392.53 503.286C1393.32 505.577 1394.56 507.214 1396.26 508.196C1398.03 509.179 1400.55 509.67 1403.83 509.67ZM1461.73 519.982C1456.17 519.982 1451.85 519.196 1448.77 517.625C1445.76 515.988 1443.6 513.271 1442.29 509.473C1441.04 505.61 1440.42 500.143 1440.42 493.071C1440.42 486.065 1441.04 480.696 1442.29 476.964C1443.6 473.167 1445.76 470.482 1448.77 468.911C1451.85 467.274 1456.17 466.455 1461.73 466.455C1466.05 466.455 1469.2 466.881 1471.16 467.732C1473.13 468.583 1474.63 470.188 1475.68 472.545H1476.47V447.5H1488.35V519H1476.47V513.696H1475.68C1474.17 516.119 1472.44 517.789 1470.47 518.705C1468.58 519.557 1465.66 519.982 1461.73 519.982ZM1465.17 509.67C1468.18 509.67 1470.51 509.179 1472.14 508.196C1473.78 507.149 1474.93 505.446 1475.58 503.089C1476.3 500.732 1476.66 497.393 1476.66 493.071C1476.66 488.75 1476.3 485.443 1475.58 483.152C1474.93 480.795 1473.78 479.125 1472.14 478.143C1470.51 477.161 1468.18 476.67 1465.17 476.67C1461.83 476.67 1459.25 477.161 1457.41 478.143C1455.64 479.125 1454.37 480.795 1453.58 483.152C1452.86 485.443 1452.5 488.75 1452.5 493.071C1452.5 497.393 1452.86 500.765 1453.58 503.187C1454.37 505.545 1455.64 507.214 1457.41 508.196C1459.25 509.179 1461.83 509.67 1465.17 509.67ZM1528.38 519.884C1521.97 519.884 1517.02 519.098 1513.55 517.527C1510.08 515.89 1507.59 513.14 1506.09 509.277C1504.65 505.414 1503.93 499.946 1503.93 492.875C1503.93 485.935 1504.61 480.598 1505.99 476.866C1507.43 473.068 1509.82 470.384 1513.16 468.812C1516.56 467.241 1521.38 466.455 1527.6 466.455C1533.95 466.455 1538.79 467.405 1542.13 469.304C1545.54 471.202 1547.89 474.378 1549.2 478.83C1550.58 483.217 1551.14 489.47 1550.87 497.589H1516.01C1516.27 500.798 1516.79 503.286 1517.58 505.054C1518.36 506.756 1519.58 507.967 1521.21 508.688C1522.92 509.408 1525.27 509.768 1528.28 509.768C1531.23 509.768 1533.36 509.31 1534.67 508.393C1536.04 507.476 1537.12 505.774 1537.91 503.286H1550.09C1549.43 507.607 1548.35 510.946 1546.85 513.304C1545.34 515.661 1543.15 517.363 1540.27 518.411C1537.39 519.393 1533.42 519.884 1528.38 519.884ZM1539.19 488.259C1539.19 485.247 1538.79 482.923 1538.01 481.286C1537.29 479.583 1536.08 478.372 1534.37 477.652C1532.74 476.932 1530.48 476.571 1527.6 476.571C1524.85 476.571 1522.62 476.932 1520.92 477.652C1519.28 478.372 1518.07 479.583 1517.28 481.286C1516.5 482.923 1516.11 485.247 1516.11 488.259H1539.19ZM1566.45 508.786H1584.42V457.714H1567.43V447.5H1596.21V508.786H1613V519H1566.45V508.786Z" fill="white"/>
</svg>
